<svg width="235" height="74" viewBox="0 0 235 74" fill="none" xmlns="http://www.w3.org/2000/svg">
<path d="M36.3 73.8002C56.3479 73.8002 72.6 57.5481 72.6 37.5002C72.6 17.4523 56.3479 1.2002 36.3 1.2002C16.2521 1.2002 0 17.4523 0 37.5002C0 57.5481 16.2521 73.8002 36.3 73.8002Z" fill="#028090"/>
<path opacity="0.5" d="M46.5 73.7001C66.5479 73.7001 82.8 57.448 82.8 37.4001C82.8 17.3522 66.5479 1.1001 46.5 1.1001C26.452 1.1001 10.2 17.3522 10.2 37.4001C10.2 57.448 26.452 73.7001 46.5 73.7001Z" fill="#02C39A"/>
<path opacity="0.5" d="M56.6999 73.6C76.7478 73.6 92.9999 57.3479 92.9999 37.3C92.9999 17.2521 76.7478 1 56.6999 1C36.652 1 20.3999 17.2521 20.3999 37.3C20.3999 57.3479 36.652 73.6 56.6999 73.6Z" fill="#66EC9C"/>
<path d="M104.982 56.1899V13.6014H133.115V18.4001H110.381V32.6163H129.516V37.1151H110.381V56.1899H104.982ZM139.953 56.1899V13.6014H145.352V56.1899H139.953ZM172.811 56.4899C169.811 56.4899 167.072 55.89 164.593 54.6903C162.153 53.4507 160.054 51.8311 158.294 49.8317C156.535 47.7922 155.175 45.4728 154.216 42.8735C153.256 40.2742 152.776 37.615 152.776 34.8957C152.776 32.0565 153.276 29.3372 154.276 26.7379C155.315 24.1386 156.735 21.8392 158.534 19.8398C160.334 17.8403 162.453 16.2607 164.893 15.101C167.372 13.9014 170.051 13.3015 172.93 13.3015C175.93 13.3015 178.649 13.9414 181.088 15.221C183.528 16.4607 185.627 18.1002 187.387 20.1397C189.146 22.1791 190.506 24.4985 191.465 27.0978C192.425 29.6571 192.905 32.2764 192.905 34.9557C192.905 37.7949 192.385 40.5142 191.345 43.1135C190.346 45.7128 188.946 48.0121 187.147 50.0116C185.387 51.9711 183.268 53.5507 180.788 54.7503C178.349 55.91 175.69 56.4899 172.811 56.4899ZM158.234 34.8957C158.234 37.0551 158.574 39.1545 159.254 41.194C159.974 43.1935 160.974 44.973 162.253 46.5325C163.533 48.0921 165.073 49.3318 166.872 50.2515C168.672 51.1713 170.671 51.6312 172.87 51.6312C175.15 51.6312 177.189 51.1513 178.989 50.1916C180.788 49.1918 182.308 47.9122 183.548 46.3526C184.827 44.753 185.787 42.9535 186.427 40.9541C187.107 38.9546 187.447 36.9351 187.447 34.8957C187.447 32.7363 187.087 30.6568 186.367 28.6574C185.687 26.6179 184.687 24.8384 183.368 23.3188C182.088 21.7592 180.548 20.5196 178.749 19.5998C176.989 18.6801 175.03 18.2202 172.87 18.2202C170.591 18.2202 168.552 18.7001 166.752 19.6598C164.953 20.6195 163.413 21.8792 162.133 23.4388C160.894 24.9984 159.934 26.7779 159.254 28.7773C158.574 30.7768 158.234 32.8163 158.234 34.8957ZM200.406 56.1899V13.6014H218.641C220.52 13.6014 222.24 14.0013 223.8 14.8011C225.399 15.5609 226.759 16.6006 227.878 17.9203C229.038 19.1999 229.938 20.6595 230.578 22.2991C231.218 23.8987 231.537 25.5382 231.537 27.2178C231.537 28.6974 231.318 30.137 230.878 31.5366C230.478 32.8962 229.878 34.1359 229.078 35.2556C228.318 36.3753 227.379 37.335 226.259 38.1348C225.179 38.9346 223.959 39.5144 222.6 39.8743L232.917 56.1899H226.799L217.081 40.8941H205.804V56.1899H200.406ZM205.804 36.0954H218.701C219.821 36.0954 220.82 35.8554 221.7 35.3756C222.62 34.8957 223.4 34.2559 224.039 33.4561C224.679 32.6163 225.179 31.6566 225.539 30.5769C225.899 29.4971 226.079 28.3775 226.079 27.2178C226.079 26.0181 225.859 24.8984 225.419 23.8587C225.019 22.779 224.459 21.8392 223.74 21.0394C223.06 20.1997 222.24 19.5598 221.28 19.12C220.36 18.6401 219.381 18.4001 218.341 18.4001H205.804V36.0954Z" fill="black"/>
</svg>
