<svg width="200" height="200" viewBox="0 0 200 200" fill="none" xmlns="http://www.w3.org/2000/svg">
<g clip-path="url(#clip0)">
<path d="M181.056 19.4021C127.019 15.1427 72.9811 15.1427 18.9436 19.4021C10.8752 20.038 4.42949 26.3466 3.55723 34.3927C-1.18574 78.131 -1.18574 121.869 3.55723 165.608C4.42988 173.654 10.8756 179.962 18.9436 180.598C72.9811 184.858 127.019 184.858 181.056 180.598C189.124 179.962 195.57 173.654 196.443 165.608C201.186 121.87 201.186 78.1313 196.443 34.3927C195.57 26.3466 189.124 20.038 181.056 19.4021V19.4021Z" fill="#BECDE2"/>
<path d="M198.666 59.8126L198.585 59.8044C132.863 54.0095 67.1406 54.0095 1.41836 59.8044L1.33789 59.8165C1.89727 51.3415 2.6375 42.8708 3.55938 34.3958C4.43242 26.3478 10.8789 20.038 18.9434 19.4021C72.9836 15.1446 127.02 15.1446 181.06 19.4021C189.125 20.038 195.571 26.3478 196.445 34.3962C197.366 42.8669 198.106 51.3419 198.666 59.8126V59.8126Z" fill="#617881"/>
<path d="M25.4648 47.0166C30.6781 47.0166 34.9043 42.7904 34.9043 37.5771C34.9043 32.3639 30.6781 28.1377 25.4648 28.1377C20.2516 28.1377 16.0254 32.3639 16.0254 37.5771C16.0254 42.7904 20.2516 47.0166 25.4648 47.0166Z" fill="#B7457D"/>
<path d="M82.1011 47.0166C87.3143 47.0166 91.5405 42.7904 91.5405 37.5771C91.5405 32.3639 87.3143 28.1377 82.1011 28.1377C76.8878 28.1377 72.6616 32.3639 72.6616 37.5771C72.6616 42.7904 76.8878 47.0166 82.1011 47.0166Z" fill="#66EC9C"/>
<path d="M53.7832 47.0166C58.9965 47.0166 63.2227 42.7904 63.2227 37.5771C63.2227 32.3639 58.9965 28.1377 53.7832 28.1377C48.5699 28.1377 44.3438 32.3639 44.3438 37.5771C44.3438 42.7904 48.5699 47.0166 53.7832 47.0166Z" fill="#F4DD45"/>
<path d="M177.295 86.511H56.1146C54.4479 86.511 53.0967 85.1599 53.0967 83.4931C53.0967 81.8263 54.4479 80.4751 56.1146 80.4751H177.295C178.962 80.4751 180.313 81.8263 180.313 83.4931C180.313 85.1599 178.962 86.511 177.295 86.511Z" fill="#617881"/>
<path d="M177.295 103.642H56.1146C54.4479 103.642 53.0967 102.291 53.0967 100.624C53.0967 98.9571 54.4479 97.606 56.1146 97.606H177.295C178.962 97.606 180.313 98.9571 180.313 100.624C180.313 102.291 178.962 103.642 177.295 103.642Z" fill="#617881"/>
<path d="M177.295 120.773H22.704C21.0372 120.773 19.686 119.422 19.686 117.755C19.686 116.088 21.0372 114.737 22.704 114.737H177.295C178.962 114.737 180.313 116.088 180.313 117.755C180.314 119.422 178.962 120.773 177.295 120.773Z" fill="#617881"/>
<path d="M177.295 137.904H22.704C21.0372 137.904 19.686 136.552 19.686 134.886C19.686 133.219 21.0372 131.868 22.704 131.868H177.295C178.962 131.868 180.313 133.219 180.313 134.886C180.313 136.552 178.962 137.904 177.295 137.904Z" fill="#617881"/>
<path d="M76.7226 155.036H22.705C21.0382 155.036 19.687 153.685 19.687 152.018C19.687 150.352 21.0382 149 22.705 149H76.7229C78.3897 149 79.7409 150.352 79.7409 152.018C79.7409 153.685 78.3894 155.036 76.7226 155.036Z" fill="#617881"/>
<path d="M142.34 127.77C140.82 127.77 139.512 126.624 139.344 125.079C138.751 119.645 144.621 110.547 154.247 96.1521C162.109 84.3962 171.019 71.0716 172.261 63.3685C173.324 56.7661 170.498 52.1294 163.862 49.5876C162.305 48.9915 161.527 47.2462 162.123 45.6896C162.719 44.1329 164.465 43.3548 166.021 43.9505C175.288 47.4997 179.734 54.9271 178.22 64.3286C176.769 73.3329 167.87 86.6392 159.265 99.5079C155.378 105.32 151.707 110.81 149.065 115.42C145.499 121.64 145.275 123.79 145.344 124.425C145.525 126.082 144.328 127.572 142.671 127.752C142.56 127.764 142.45 127.77 142.34 127.77Z" fill="#8C94A0"/>
<path d="M165.488 49.4809L170.883 39.4926C172.247 36.968 171.304 33.8106 168.779 32.4473L161.033 28.2629C158.504 26.8973 155.35 27.8422 153.987 30.3664L148.592 40.3547" fill="#BECDE2"/>
<path d="M167.384 31.6938C164.856 30.3282 161.703 31.2731 160.339 33.7974L154.944 43.7856L148.592 40.3548L153.987 30.3665C155.351 27.8419 158.505 26.8973 161.033 28.263L167.384 31.6938Z" fill="#8C94A0"/>
<path d="M146.484 100.869C128.04 135.015 106.27 159.017 97.8615 154.475C89.4525 149.933 97.5904 118.567 116.034 84.4214C125.386 67.1077 135.595 52.4003 144.479 42.7034C146.894 40.0679 150.795 39.4218 153.94 41.1206L161.913 45.4273C165.058 47.1261 166.657 50.7425 165.777 54.207C162.538 66.9538 155.836 83.5554 146.484 100.869Z" fill="#02C39A"/>
<path d="M97.8615 154.476C89.4525 149.934 97.5904 118.568 116.034 84.4219C125.386 67.1082 135.594 52.4016 144.478 42.702C146.893 40.0684 150.795 39.4231 153.94 41.1211L156.829 42.6817C155.965 42.2149 154.059 43.9391 152.204 46.8746C145.362 57.6778 136.426 73.0707 127.074 90.3848C108.63 124.531 95.5494 153.227 97.8615 154.476V154.476Z" fill="#028090"/>
<path d="M95.8519 160.761C95.3136 160.761 94.7683 160.617 94.2757 160.315C92.8554 159.442 92.4109 157.584 93.2828 156.163L95.2882 152.897C96.1601 151.477 98.0183 151.032 99.4394 151.904C100.86 152.776 101.304 154.635 100.432 156.055L98.4269 159.322C97.857 160.249 96.8667 160.761 95.8519 160.761V160.761Z" fill="#B7457D"/>
<path d="M39.2621 83.6509C40.4922 82.0048 41.2211 79.9638 41.2211 77.7556C41.2211 72.3138 36.7938 67.8865 31.352 67.8865H22.7035C21.0367 67.8865 19.6855 69.2376 19.6855 70.9044V84.6142V84.6365V100.678C19.6855 101.481 20.0055 102.251 20.5742 102.817C21.1398 103.38 21.9055 103.696 22.7035 103.696H22.7168C22.7168 103.696 30.6703 103.661 32.8625 103.661C38.9457 103.661 43.8949 98.7115 43.8949 92.6287C43.8949 88.9302 42.0637 85.6537 39.2621 83.6509V83.6509ZM31.3523 73.9232C33.466 73.9232 35.1852 75.6423 35.1852 77.756C35.1852 79.8693 33.466 81.5888 31.3523 81.5888C30.7168 81.5888 29.5191 81.5923 28.2133 81.597H25.7219V73.9236H31.3523V73.9232ZM32.8625 97.6248C31.5582 97.6248 28.2207 97.6373 25.7219 97.6474V87.6423C26.5227 87.6392 27.3945 87.6357 28.2242 87.633H32.8629C35.6176 87.633 37.859 89.874 37.859 92.6291C37.8586 95.3837 35.6176 97.6248 32.8625 97.6248V97.6248Z" fill="#B7457D"/>
</g>
<defs>
<clipPath id="clip0">
<rect width="200" height="200" fill="white"/>
</clipPath>
</defs>
</svg>
