<svg width="24" height="24" viewBox="0 0 24 24" fill="none" xmlns="http://www.w3.org/2000/svg">
<path d="M15.7857 2.91431H2.39606C1.07273 2.91431 0 3.98709 0 5.31037V18.7C0 20.0233 1.07273 21.096 2.39606 21.096H15.7857C17.109 21.096 18.1817 20.0233 18.1817 18.7V5.31037C18.1817 3.98709 17.109 2.91431 15.7857 2.91431Z" fill="#BECDE2"/>
<path d="M14.6906 5.34058H3.49155C2.90318 5.34058 2.42627 5.81753 2.42627 6.40586V17.6048C2.42627 18.1932 2.90322 18.6701 3.49155 18.6701H14.6905C15.2789 18.6701 15.7558 18.1931 15.7558 17.6048V6.4059C15.7559 5.81758 15.2789 5.34058 14.6906 5.34058Z" fill="#F2F3F7"/>
<path opacity="0.1" d="M3.49957 7.47915C3.49957 6.89078 3.97652 6.41387 4.56485 6.41387H15.7558V6.40586C15.7558 5.81748 15.2788 5.34058 14.6905 5.34058H3.49155C2.90318 5.34058 2.42627 5.81753 2.42627 6.40586V17.6048C2.42627 18.1932 2.90322 18.6701 3.49155 18.6701H3.49957V7.47915Z" fill="#232325"/>
<path d="M11.1063 17.4061C10.6748 17.4061 10.2561 17.2385 9.94221 16.9325L4.46804 11.5966C3.80842 10.9535 3.79492 9.89758 4.4379 9.23791C5.08084 8.57819 6.13684 8.56483 6.79651 9.20777L10.7983 13.1086C12.4008 10.8243 15.7433 6.8096 21.4325 3.16746C22.2085 2.67072 23.2399 2.89722 23.7365 3.67291C24.2332 4.44874 24.0068 5.48027 23.2311 5.97695C15.5898 10.8688 12.6141 16.4544 12.5849 16.5102C12.3409 16.9775 11.8903 17.302 11.3697 17.3852C11.2819 17.3992 11.1939 17.4061 11.1063 17.4061Z" fill="#02C39A"/>
</svg>
