<svg width="300" height="300" viewBox="0 0 300 300" fill="none" xmlns="http://www.w3.org/2000/svg">
<g clip-path="url(#clip0)">
<path d="M220.346 0H134.905L118.405 21.8707V280.908L134.905 300H220.346C227.416 300 233.148 294.268 233.148 287.197V12.8027C233.148 5.73164 227.417 0 220.346 0V0Z" fill="#D0DBE9"/>
<path d="M254.854 0H216.616C223.686 0 229.418 5.73164 229.418 12.8027V287.197C229.418 294.268 223.687 300 216.616 300H254.854C261.925 300 267.657 294.268 267.657 287.197V12.8027C267.657 5.73164 261.925 0 254.854 0V0Z" fill="#BECDE2"/>
<path d="M134.905 0H45.146C38.0755 0 32.3433 5.73164 32.3433 12.8027V287.197C32.3433 294.268 38.0755 300 45.146 300H134.905V0Z" fill="#02C39A"/>
<path d="M182.727 88.1538C170.266 88.1538 160.128 78.0153 160.128 65.5547C160.128 53.0942 170.266 42.9563 182.727 42.9563C187.255 42.9563 191.626 44.2917 195.365 46.8182C197.438 48.218 197.983 51.0335 196.583 53.1059C195.183 55.1784 192.367 55.7227 190.295 54.3235C188.058 52.8124 185.441 52.0137 182.727 52.0137C175.26 52.0137 169.185 58.0887 169.185 65.5547C169.185 73.0219 175.26 79.0963 182.727 79.0963C185.49 79.0963 187.813 78.2749 189.632 76.6553C189.987 76.3389 190.327 75.9885 190.64 75.6147C192.246 73.6981 195.103 73.4461 197.02 75.0534C198.936 76.66 199.188 79.5165 197.581 81.4336C196.986 82.1432 196.339 82.8112 195.656 83.4188C192.178 86.5161 187.707 88.1538 182.727 88.1538Z" fill="#EABC6B"/>
<path d="M227.81 88.1531C225.552 88.1531 223.531 86.7287 222.774 84.5977L210.406 48.9697C209.587 46.6066 210.837 44.0273 213.199 43.207C215.562 42.3855 218.142 43.6371 218.963 46.0002L227.732 71.2641L236.084 46.1232C236.872 43.749 239.435 42.4635 241.809 43.2533C244.183 44.042 245.468 46.6049 244.679 48.9785L232.879 84.4998C232.137 86.6824 230.118 88.1379 227.845 88.1531C227.834 88.1531 227.821 88.1531 227.81 88.1531Z" fill="#EABC6B"/>
<path d="M83.6812 96.9316C101.01 96.9316 115.058 82.8837 115.058 65.5547C115.058 48.2257 101.01 34.1777 83.6812 34.1777C66.3521 34.1777 52.3042 48.2257 52.3042 65.5547C52.3042 82.8837 66.3521 96.9316 83.6812 96.9316Z" fill="#FFE07D"/>
<path d="M83.6812 72.9563C73.681 72.9563 65.2417 79.6167 62.5435 88.742C68.1204 93.8286 75.5378 96.9317 83.6812 96.9317C91.8245 96.9317 99.2419 93.8286 104.819 88.742C102.121 79.6167 93.6813 72.9563 83.6812 72.9563Z" fill="#028090"/>
<path d="M83.6811 75.7454C89.813 75.7454 94.784 70.7745 94.784 64.6425C94.784 58.5105 89.813 53.5396 83.6811 53.5396C77.5491 53.5396 72.5781 58.5105 72.5781 64.6425C72.5781 70.7745 77.5491 75.7454 83.6811 75.7454Z" fill="#015D69"/>
<path d="M109.921 163.111H57.4418C54.5408 163.111 52.1895 160.759 52.1895 157.858V144.92C52.1895 142.019 54.5408 139.667 57.4418 139.667H109.921C112.822 139.667 115.174 142.019 115.174 144.92V157.858C115.174 160.759 112.822 163.111 109.921 163.111Z" fill="#FFE07D"/>
<path d="M109.921 211.106H57.4418C54.5408 211.106 52.1895 208.755 52.1895 205.854V192.916C52.1895 190.015 54.5408 187.663 57.4418 187.663H109.921C112.822 187.663 115.174 190.015 115.174 192.916V205.854C115.174 208.755 112.822 211.106 109.921 211.106Z" fill="#FFE07D"/>
<path d="M109.921 259.102H57.4418C54.5408 259.102 52.1895 256.751 52.1895 253.85V240.912C52.1895 238.011 54.5408 235.659 57.4418 235.659H109.921C112.822 235.659 115.174 238.011 115.174 240.912V253.85C115.174 256.751 112.822 259.102 109.921 259.102Z" fill="#FFE07D"/>
<path d="M243.514 151.774H158.58C156.079 151.774 154.051 149.747 154.051 147.246C154.051 144.744 156.079 142.717 158.58 142.717H243.513C246.015 142.717 248.042 144.744 248.042 147.246C248.043 149.747 246.015 151.774 243.514 151.774Z" fill="#028090"/>
<path d="M201.047 179.553H158.58C156.079 179.553 154.051 177.526 154.051 175.025C154.051 172.523 156.079 170.496 158.58 170.496H201.047C203.548 170.496 205.576 172.523 205.576 175.025C205.576 177.526 203.548 179.553 201.047 179.553Z" fill="#028090"/>
<path d="M243.514 207.332H158.58C156.079 207.332 154.051 205.305 154.051 202.804C154.051 200.302 156.079 198.275 158.58 198.275H243.513C246.015 198.275 248.042 200.302 248.042 202.804C248.043 205.305 246.015 207.332 243.514 207.332Z" fill="#028090"/>
<path d="M243.514 235.111H158.58C156.079 235.111 154.051 233.084 154.051 230.582C154.051 228.081 156.079 226.054 158.58 226.054H243.513C246.015 226.054 248.042 228.081 248.042 230.582C248.042 233.084 246.015 235.111 243.514 235.111Z" fill="#028090"/>
<path d="M201.047 263.631H158.58C156.079 263.631 154.051 261.604 154.051 259.102C154.051 256.601 156.079 254.574 158.58 254.574H201.047C203.548 254.574 205.576 256.601 205.576 259.102C205.576 261.604 203.548 263.631 201.047 263.631Z" fill="#028090"/>
<path d="M243.514 123.996H158.58C156.079 123.996 154.051 121.968 154.051 119.467C154.051 116.966 156.079 114.938 158.58 114.938H243.513C246.015 114.938 248.042 116.966 248.042 119.467C248.043 121.968 246.015 123.996 243.514 123.996Z" fill="#028090"/>
</g>
<defs>
<clipPath id="clip0">
<rect width="300" height="300" fill="white"/>
</clipPath>
</defs>
</svg>
