<svg width="200" height="200" viewBox="0 0 200 200" fill="none" xmlns="http://www.w3.org/2000/svg">
<path d="M193.75 78.125H133.203V68.3594C133.203 50.0219 148.069 35.1562 166.406 35.1562C184.744 35.1562 199.609 50.0219 199.609 68.3594V72.2656C199.609 75.5016 196.986 78.125 193.75 78.125Z" fill="#FF5E82"/>
<path d="M199.609 68.3594C199.609 50.0219 184.744 35.1562 166.406 35.1562V78.125H193.75C196.986 78.125 199.609 75.5016 199.609 72.2656V68.3594Z" fill="#B7457D"/>
<path d="M166.406 42.9688C154.56 42.9688 144.922 33.3309 144.922 21.4844C144.922 9.63789 154.56 0 166.406 0C178.253 0 187.891 9.63789 187.891 21.4844C187.891 33.3309 178.253 42.9688 166.406 42.9688Z" fill="#FFD6AA"/>
<path d="M166.406 0V42.9688C178.253 42.9688 187.891 33.3309 187.891 21.4844C187.891 9.63789 178.253 0 166.406 0Z" fill="#FAC68F"/>
<path d="M133.203 78.125H66.7969V68.3594C66.7969 50.0219 81.6625 35.1562 100 35.1562C118.338 35.1562 133.203 50.0219 133.203 68.3594V78.125Z" fill="#DAE9FF"/>
<path d="M133.203 68.3594C133.203 50.0219 118.338 35.1562 100 35.1562V78.125H133.203V68.3594Z" fill="#BECDE2"/>
<path d="M100 42.9688C88.1535 42.9688 78.5156 33.3309 78.5156 21.4844C78.5156 9.63789 88.1535 0 100 0C111.846 0 121.484 9.63789 121.484 21.4844C121.484 33.3309 111.846 42.9688 100 42.9688Z" fill="#FFD6AA"/>
<path d="M100 0V42.9688C111.846 42.9688 121.484 33.3309 121.484 21.4844C121.484 9.63789 111.846 0 100 0Z" fill="#FAC68F"/>
<path d="M66.7969 78.125H6.25C3.01406 78.125 0.390625 75.5016 0.390625 72.2656V68.3594C0.390625 50.0219 15.2562 35.1562 33.5938 35.1562C51.9313 35.1562 66.7969 50.0219 66.7969 68.3594V78.125Z" fill="#02C39A"/>
<path d="M66.7969 68.3594C66.7969 50.0219 51.9313 35.1562 33.5938 35.1562V78.125H66.7969V68.3594Z" fill="#3B5266"/>
<path d="M33.5938 42.9688C21.7473 42.9688 12.1094 33.3309 12.1094 21.4844C12.1094 9.63789 21.7473 0 33.5938 0C45.4402 0 55.0781 9.63789 55.0781 21.4844C55.0781 33.3309 45.4402 42.9688 33.5938 42.9688Z" fill="#FFD6AA"/>
<path d="M33.5938 0V42.9688C45.4402 42.9688 55.0781 33.3309 55.0781 21.4844C55.0781 9.63789 45.4402 0 33.5938 0Z" fill="#FAC68F"/>
<path d="M193.75 117.188H6.25C3.01406 117.188 0.390625 114.564 0.390625 111.328V72.2656H199.609V111.328C199.609 114.564 196.986 117.188 193.75 117.188Z" fill="#BC8173"/>
<path d="M199.609 111.328V72.2656H100V117.188H193.75C196.986 117.188 199.609 114.564 199.609 111.328Z" fill="#9D5E4A"/>
<path d="M193.75 171.875H133.203V162.109C133.203 143.772 148.069 128.906 166.406 128.906C184.744 128.906 199.609 143.772 199.609 162.109V166.016C199.609 169.252 196.986 171.875 193.75 171.875Z" fill="#DAE9FF"/>
<path d="M199.609 162.109C199.609 143.772 184.744 128.906 166.406 128.906V171.875H193.75C196.986 171.875 199.609 169.252 199.609 166.016V162.109Z" fill="#BECDE2"/>
<path d="M166.406 136.719C154.56 136.719 144.922 127.081 144.922 115.234C144.922 103.388 154.56 93.75 166.406 93.75C178.253 93.75 187.891 103.388 187.891 115.234C187.891 127.081 178.253 136.719 166.406 136.719Z" fill="#FFD6AA"/>
<path d="M166.406 93.75V136.719C178.253 136.719 187.891 127.081 187.891 115.234C187.891 103.388 178.253 93.75 166.406 93.75Z" fill="#FAC68F"/>
<path d="M133.203 171.875H66.7969V162.109C66.7969 143.772 81.6625 128.906 100 128.906C118.338 128.906 133.203 143.772 133.203 162.109V171.875Z" fill="#02C39A"/>
<path d="M133.203 162.109C133.203 143.772 118.338 128.906 100 128.906V171.875H133.203V162.109Z" fill="#3B5266"/>
<path d="M100 136.719C88.1535 136.719 78.5156 127.081 78.5156 115.234C78.5156 103.388 88.1535 93.75 100 93.75C111.846 93.75 121.484 103.388 121.484 115.234C121.484 127.081 111.846 136.719 100 136.719Z" fill="#FFD6AA"/>
<path d="M100 93.75V136.719C111.846 136.719 121.484 127.081 121.484 115.234C121.484 103.388 111.846 93.75 100 93.75Z" fill="#FAC68F"/>
<path d="M66.7969 171.875H6.25C3.01406 171.875 0.390625 169.252 0.390625 166.016V162.109C0.390625 143.772 15.2562 128.906 33.5938 128.906C51.9313 128.906 66.7969 143.772 66.7969 162.109V171.875Z" fill="#FF5E82"/>
<path d="M66.7969 162.109C66.7969 143.772 51.9313 128.906 33.5938 128.906V171.875H66.7969V162.109Z" fill="#B7457D"/>
<path d="M33.5938 136.719C21.7473 136.719 12.1094 127.081 12.1094 115.234C12.1094 103.388 21.7473 93.75 33.5938 93.75C45.4402 93.75 55.0781 103.388 55.0781 115.234C55.0781 127.081 45.4402 136.719 33.5938 136.719Z" fill="#FFD6AA"/>
<path d="M33.5938 93.75V136.719C45.4402 136.719 55.0781 127.081 55.0781 115.234C55.0781 103.388 45.4402 93.75 33.5938 93.75Z" fill="#FAC68F"/>
<path d="M0.390625 166.016V194.141C0.390625 197.377 3.01406 200 6.25 200H193.75C196.986 200 199.609 197.377 199.609 194.141V166.016H0.390625Z" fill="#BC8173"/>
<path d="M193.75 200C196.986 200 199.609 197.377 199.609 194.141V166.016H100V200H193.75Z" fill="#9D5E4A"/>
</svg>
