<svg width="300" height="300" viewBox="0 0 300 300" fill="none" xmlns="http://www.w3.org/2000/svg">
<g clip-path="url(#clip0)">
<path d="M168.736 119.447L108.619 128.014L57.9202 6.02658C56.7523 3.2164 58.8205 0.123048 61.8637 0.128425L117.332 0.222815C119.063 0.225802 120.62 1.27484 121.273 2.87767L168.736 119.447Z" fill="#02C39A"/>
<path d="M131.263 119.318L191.379 127.885L242.078 5.89816C243.246 3.08798 241.178 -0.00536962 238.135 6.99897e-06L182.666 0.0943966C180.936 0.0973836 179.379 1.14642 178.726 2.74925L131.263 119.318Z" fill="#02C39A"/>
<path d="M150.261 299.999C192.165 299.999 226.135 266.029 226.135 224.125C226.135 182.221 192.165 148.251 150.261 148.251C108.357 148.251 74.3867 182.221 74.3867 224.125C74.3867 266.029 108.357 299.999 150.261 299.999Z" fill="#FFE07D"/>
<path d="M150.262 266.777C173.818 266.777 192.914 247.681 192.914 224.125C192.914 200.569 173.818 181.473 150.262 181.473C126.705 181.473 107.609 200.569 107.609 224.125C107.609 247.681 126.705 266.777 150.262 266.777Z" fill="#FFF0AF"/>
<path d="M242.079 5.89583L191.378 127.885L174.276 125.446L223.963 5.89583C225.062 3.23858 223.281 0.33401 220.509 0.032322L238.136 0.00245186C241.18 -0.00411956 243.245 3.08804 242.079 5.89583Z" fill="#028090"/>
<path d="M168.738 119.45L151.606 121.889L102.625 1.57245C102.414 1.05929 102.124 0.594507 101.761 0.201416L117.33 0.225312C119.063 0.225312 120.621 1.27614 121.273 2.87658L168.738 119.45Z" fill="#028090"/>
<path d="M188.086 148.251H112.437C99.475 148.251 88.9673 137.743 88.9673 124.781V114.927C88.9673 112.954 90.5665 111.355 92.5392 111.355H207.985C209.957 111.355 211.557 112.954 211.557 114.927V124.781C211.556 137.743 201.048 148.251 188.086 148.251Z" fill="#FFE07D"/>
<path d="M226.137 224.126C226.137 266.029 192.169 299.998 150.259 299.998C147.191 299.998 144.172 299.817 141.201 299.46C178.841 294.985 208.02 262.962 208.02 224.126C208.02 185.29 178.841 153.261 141.201 148.786C144.172 148.43 147.191 148.248 150.259 148.248C192.169 148.249 226.137 182.223 226.137 224.126Z" fill="#FFD064"/>
<path d="M211.553 114.963V124.529C211.553 137.627 200.937 148.249 187.833 148.249H169.717C182.821 148.249 193.437 137.627 193.437 124.529V114.963C193.437 112.97 191.825 111.358 189.832 111.358H207.948C209.941 111.358 211.553 112.97 211.553 114.963Z" fill="#FFD064"/>
</g>
<defs>
<clipPath id="clip0">
<rect width="300" height="300" fill="white"/>
</clipPath>
</defs>
</svg>
