<svg width="200" height="200" viewBox="0 0 200 200" fill="none" xmlns="http://www.w3.org/2000/svg">
<path d="M182.422 19.5312H17.5781C7.88555 19.5312 0 27.4168 0 37.1094V126.172C0 135.864 7.88555 143.75 17.5781 143.75H182.422C192.114 143.75 200 135.864 200 126.172V37.1094C200 27.4168 192.114 19.5312 182.422 19.5312Z" fill="#6C6C6C"/>
<path d="M182.422 19.5312H100V143.75H182.422C192.114 143.75 200 135.864 200 126.172V37.1094C200 27.4168 192.114 19.5312 182.422 19.5312Z" fill="#404040"/>
<path d="M168.75 62.5H137.5C134.264 62.5 131.641 59.8766 131.641 56.6406C131.641 53.4047 134.264 50.7812 137.5 50.7812H168.75C171.986 50.7812 174.609 53.4047 174.609 56.6406C174.609 59.8766 171.986 62.5 168.75 62.5Z" fill="#B7457D"/>
<path d="M168.75 87.5H137.5C134.264 87.5 131.641 84.8766 131.641 81.6406C131.641 78.4047 134.264 75.7812 137.5 75.7812H168.75C171.986 75.7812 174.609 78.4047 174.609 81.6406C174.609 84.8766 171.986 87.5 168.75 87.5Z" fill="#FF5E82"/>
<path d="M168.75 112.5H137.5C134.264 112.5 131.641 109.877 131.641 106.641C131.641 103.405 134.264 100.781 137.5 100.781H168.75C171.986 100.781 174.609 103.405 174.609 106.641C174.609 109.877 171.986 112.5 168.75 112.5Z" fill="#FF5E82"/>
<path d="M112.5 112.5C115.736 112.5 118.359 109.877 118.359 106.641C118.359 103.405 115.736 100.782 112.5 100.782C109.264 100.782 106.641 103.405 106.641 106.641C106.641 109.877 109.264 112.5 112.5 112.5Z" fill="#FF5E82"/>
<path d="M112.5 87.501C115.736 87.501 118.359 84.8777 118.359 81.6416C118.359 78.4056 115.736 75.7823 112.5 75.7823C109.264 75.7823 106.641 78.4056 106.641 81.6416C106.641 84.8777 109.264 87.501 112.5 87.501Z" fill="#FF5E82"/>
<path d="M112.5 62.5008C115.736 62.5008 118.359 59.8775 118.359 56.6414C118.359 53.4054 115.736 50.782 112.5 50.782C109.264 50.782 106.641 53.4054 106.641 56.6414C106.641 59.8775 109.264 62.5008 112.5 62.5008Z" fill="#B7457D"/>
<path d="M84.4145 109.534C78.043 101.875 69.1504 97.6562 59.375 97.6562C49.5996 97.6562 40.707 101.875 34.3355 109.534C28.6512 116.368 25.3906 125.565 25.3906 134.766V168.75C25.3906 175.212 30.6477 180.469 37.1094 180.469H81.6406C88.1023 180.469 93.3594 175.212 93.3594 168.75V134.766C93.3594 125.565 90.0988 116.368 84.4145 109.534Z" fill="#02C39A"/>
<path d="M81.6406 180.469C88.1023 180.469 93.3594 175.212 93.3594 168.75V134.766C93.3594 125.565 90.0988 116.368 84.4145 109.534C78.043 101.875 69.1504 97.6562 59.375 97.6562V180.469H81.6406Z" fill="#028090"/>
<path d="M59.375 109.375C44.0824 109.375 31.6406 96.9332 31.6406 81.6406C31.6406 66.348 44.0824 53.9062 59.375 53.9062C74.6676 53.9062 87.1094 66.348 87.1094 81.6406C87.1094 96.9332 74.6676 109.375 59.375 109.375Z" fill="#FED2A4"/>
<path d="M87.1094 81.6406C87.1094 66.348 74.6676 53.9062 59.375 53.9062V109.375C74.6676 109.375 87.1094 96.9332 87.1094 81.6406Z" fill="#FFBD86"/>
</svg>
