<svg width="200" height="200" viewBox="0 0 200 200" fill="none" xmlns="http://www.w3.org/2000/svg">
<path d="M141.883 60.9438L144.081 59.4711H186.335L188.323 60.9441C195.487 54.5531 200 45.2527 200 34.8969C200 15.6238 184.376 0 165.103 0C145.83 0 130.206 15.6238 130.206 34.8969C130.206 45.2523 134.719 54.5527 141.883 60.9438V60.9438Z" fill="#4A80AA"/>
<path d="M143.587 34.8969C143.587 17.9125 155.721 3.76445 171.793 0.643359C169.628 0.223047 167.392 0 165.103 0C145.83 0 130.206 15.6238 130.206 34.8969C130.206 45.2527 134.719 54.5531 141.882 60.9441L144.081 59.4715H153.713C147.456 53.1641 143.587 44.4836 143.587 34.8969V34.8969Z" fill="#407093"/>
<path d="M132.06 93.1308H126.187C125.144 93.1308 124.208 92.4796 123.858 91.4972C123.572 90.6929 123.247 89.9078 122.883 89.1433C122.436 88.2003 122.636 87.0777 123.374 86.3394L127.527 82.1867C128.495 81.2183 128.495 79.648 127.527 78.6793L121.32 72.4722C120.351 71.5039 118.781 71.5039 117.812 72.4722L113.66 76.6253C112.921 77.3636 111.799 77.5636 110.856 77.116C110.091 76.7531 109.306 76.4277 108.502 76.1414C107.52 75.7917 106.869 74.8554 106.869 73.8128V67.9398C106.869 66.5699 105.758 65.4597 104.389 65.4597H95.6104C94.2409 65.4597 93.1304 66.5699 93.1304 67.9398V73.8128C93.1304 74.8558 92.4792 75.7917 91.4968 76.1414C90.6929 76.4277 89.9073 76.7531 89.1433 77.116C88.2003 77.5636 87.0776 77.3636 86.3394 76.6253L82.1866 72.4722C81.2183 71.5039 79.6479 71.5039 78.6792 72.4722L72.4722 78.6796C71.5038 79.648 71.5038 81.2183 72.4722 82.1867L76.6249 86.3398C77.3632 87.0777 77.5632 88.2007 77.1151 89.1437C76.7522 89.9078 76.4265 90.6933 76.1405 91.4972C75.7909 92.4796 74.8546 93.1308 73.8116 93.1308H67.9386C66.569 93.1308 65.4585 94.241 65.4585 95.6109V104.389C65.4585 105.759 66.5687 106.869 67.9386 106.869H73.8116C74.8546 106.869 75.7905 107.52 76.1405 108.503C76.4269 109.307 76.7522 110.092 77.1155 110.856C77.5632 111.799 77.3632 112.922 76.6249 113.66L72.4722 117.813C71.5038 118.782 71.5038 120.352 72.4722 121.32L78.6792 127.527C79.6476 128.496 81.2179 128.496 82.1866 127.527L86.3394 123.374C87.0776 122.636 88.2003 122.436 89.1433 122.884C89.9077 123.247 90.6929 123.572 91.4968 123.859C92.4792 124.209 93.1304 125.144 93.1304 126.187V132.06C93.1304 133.43 94.2405 134.54 95.6104 134.54H104.389C105.758 134.54 106.869 133.43 106.869 132.06V126.187C106.869 125.144 107.52 124.209 108.502 123.859C109.307 123.573 110.092 123.247 110.856 122.884C111.799 122.437 112.921 122.636 113.66 123.375L117.812 127.528C118.781 128.496 120.351 128.496 121.32 127.528L127.527 121.321C128.495 120.352 128.495 118.782 127.527 117.814L123.374 113.66C122.636 112.922 122.436 111.8 122.883 110.857C123.246 110.093 123.572 109.307 123.858 108.503C124.208 107.521 125.144 106.869 126.187 106.869H132.06C133.43 106.869 134.541 105.759 134.541 104.389V95.6113C134.541 94.2414 133.43 93.1308 132.06 93.1308V93.1308ZM99.9999 113.09C92.7702 113.09 86.9097 107.23 86.9097 100C86.9097 92.7703 92.7706 86.9093 99.9999 86.9093C107.23 86.9093 113.091 92.7699 113.091 100C113.091 107.23 107.23 113.09 99.9999 113.09Z" fill="#FFE07D"/>
<path d="M165.103 34.8968C171.586 34.8968 176.84 29.6419 176.84 23.1597C176.84 16.6775 171.586 11.4226 165.103 11.4226C158.621 11.4226 153.366 16.6775 153.366 23.1597C153.366 29.6419 158.621 34.8968 165.103 34.8968Z" fill="#FFDECF"/>
<path d="M168.287 31.4589C163.704 26.8753 163.704 19.4437 168.287 14.8601C169.066 14.0808 169.929 13.4374 170.845 12.923C166.373 10.412 160.608 11.0554 156.804 14.8601C152.22 19.4437 152.22 26.8753 156.804 31.4589C160.608 35.2632 166.373 35.907 170.845 33.396C169.929 32.8816 169.066 32.2382 168.287 31.4589Z" fill="#FFCEBE"/>
<path d="M174.9 45.9297C170.747 45.9297 158.694 45.9297 155.307 45.9297C147.893 45.9297 141.883 51.9398 141.883 59.3539V60.9437C148.052 66.4469 156.186 69.7934 165.103 69.7934C174.02 69.7934 182.155 66.4469 188.323 60.9437V59.3539C188.324 51.9398 182.314 45.9297 174.9 45.9297V45.9297Z" fill="#FFAA5B"/>
<path d="M159.287 58.9517C159.287 52.6649 163.609 47.3896 169.444 45.9302C164.268 45.9302 157.673 45.9302 155.307 45.9302C147.893 45.9302 141.883 51.9403 141.883 59.3544V60.9442C146.68 65.2239 152.669 68.1903 159.287 69.3017V58.9517Z" fill="#FF9838"/>
<path d="M118.99 37.9148H81.0097C79.3429 37.9148 77.9917 36.5637 77.9917 34.8969C77.9917 33.2301 79.3429 31.8789 81.0097 31.8789H118.99C120.657 31.8789 122.008 33.2301 122.008 34.8969C122.008 36.5637 120.657 37.9148 118.99 37.9148Z" fill="#E4F6FF"/>
<path d="M118.99 168.121H81.0097C79.3429 168.121 77.9917 166.77 77.9917 165.103C77.9917 163.437 79.3429 162.085 81.0097 162.085H118.99C120.657 162.085 122.008 163.437 122.008 165.103C122.008 166.77 120.657 168.121 118.99 168.121Z" fill="#E4F6FF"/>
<path d="M34.8969 122.009C33.2301 122.009 31.8789 120.657 31.8789 118.991V81.0102C31.8789 79.343 33.2301 77.9922 34.8969 77.9922C36.5637 77.9922 37.9148 79.3434 37.9148 81.0102V118.991C37.9148 120.657 36.5637 122.009 34.8969 122.009Z" fill="#E4F6FF"/>
<path d="M165.103 122.009C163.436 122.009 162.085 120.657 162.085 118.991V81.0102C162.085 79.343 163.436 77.9922 165.103 77.9922C166.77 77.9922 168.121 79.3434 168.121 81.0102V118.991C168.121 120.657 166.77 122.009 165.103 122.009Z" fill="#E4F6FF"/>
<path d="M11.6762 60.9438L13.8746 59.4711H56.1281L58.1168 60.9441C65.2809 54.5531 69.793 45.2527 69.793 34.8969C69.7934 15.6238 54.1695 0 34.8969 0C15.6238 0 0 15.6238 0 34.8969C0 45.2523 4.5125 54.5527 11.6762 60.9438V60.9438Z" fill="#4A80AA"/>
<path d="M13.3805 34.8969C13.3805 17.9125 25.5152 3.76445 41.5871 0.643359C39.4215 0.223047 37.1852 0 34.8969 0C15.6238 0 0 15.6238 0 34.8969C0 45.2527 4.5125 54.5531 11.6762 60.9441L13.8746 59.4715H23.507C17.2492 53.1641 13.3805 44.4836 13.3805 34.8969V34.8969Z" fill="#407093"/>
<path d="M34.8968 34.8968C41.379 34.8968 46.6339 29.6419 46.6339 23.1597C46.6339 16.6775 41.379 11.4226 34.8968 11.4226C28.4145 11.4226 23.1597 16.6775 23.1597 23.1597C23.1597 29.6419 28.4145 34.8968 34.8968 34.8968Z" fill="#FFDECF"/>
<path d="M38.0806 31.4589C33.497 26.8753 33.497 19.4437 38.0806 14.8601C38.8599 14.0808 39.7228 13.4374 40.6384 12.923C36.1669 10.412 30.4017 11.0554 26.5974 14.8601C22.0138 19.4437 22.0138 26.8753 26.5974 31.4589C30.4017 35.2632 36.1669 35.907 40.6384 33.396C39.7224 32.8816 38.8599 32.2382 38.0806 31.4589V31.4589Z" fill="#FFCEBE"/>
<path d="M44.6931 45.9297C40.5407 45.9297 28.4876 45.9297 25.1005 45.9297C17.6864 45.9297 11.6763 51.9398 11.6763 59.3539V60.9437C17.845 66.4469 25.9794 69.7934 34.8966 69.7934C43.8138 69.7934 51.9481 66.4469 58.1169 60.9437V59.3539C58.1173 51.9398 52.1071 45.9297 44.6931 45.9297V45.9297Z" fill="#FF5E82"/>
<path d="M29.0806 58.9517C29.0806 52.6649 33.4028 47.3896 39.2376 45.9302C34.061 45.9302 27.4669 45.9302 25.1005 45.9302C17.6868 45.9302 11.6763 51.9403 11.6763 59.3544V60.9442C16.4735 65.2239 22.4622 68.1903 29.0806 69.3017V58.9517Z" fill="#B7457D"/>
<path d="M141.883 191.15L144.081 189.677H186.335L188.324 191.15C195.488 184.759 200 175.459 200 165.103C200 145.83 184.376 130.206 165.103 130.206C145.83 130.206 130.206 145.83 130.206 165.103C130.207 175.459 134.719 184.759 141.883 191.15Z" fill="#4A80AA"/>
<path d="M143.587 165.103C143.587 148.119 155.721 133.971 171.793 130.85C169.628 130.429 167.392 130.206 165.103 130.206C145.83 130.206 130.206 145.83 130.206 165.103C130.206 175.459 134.719 184.759 141.882 191.15L144.081 189.677H153.713C147.456 183.37 143.587 174.69 143.587 165.103Z" fill="#407093"/>
<path d="M165.103 165.103C171.586 165.103 176.84 159.848 176.84 153.366C176.84 146.884 171.586 141.629 165.103 141.629C158.621 141.629 153.366 146.884 153.366 153.366C153.366 159.848 158.621 165.103 165.103 165.103Z" fill="#FFDECF"/>
<path d="M168.287 161.665C163.704 157.082 163.704 149.65 168.287 145.066C169.066 144.287 169.929 143.644 170.845 143.129C166.373 140.618 160.608 141.262 156.804 145.066C152.22 149.65 152.22 157.082 156.804 161.665C160.608 165.47 166.373 166.113 170.845 163.602C169.929 163.088 169.066 162.445 168.287 161.665Z" fill="#FFCEBE"/>
<path d="M174.9 176.136C170.747 176.136 158.694 176.136 155.307 176.136C147.893 176.136 141.883 182.146 141.883 189.56V191.15C148.052 196.653 156.186 200 165.103 200C174.02 200 182.155 196.653 188.323 191.15V189.56C188.324 182.146 182.314 176.136 174.9 176.136V176.136Z" fill="#90D8F9"/>
<path d="M159.287 189.158C159.287 182.871 163.609 177.596 169.444 176.136C164.268 176.136 157.673 176.136 155.307 176.136C147.893 176.136 141.883 182.146 141.883 189.56V191.15C146.68 195.43 152.669 198.396 159.287 199.508V189.158Z" fill="#75CEF9"/>
<path d="M11.6762 191.15L13.8746 189.677H56.1281L58.1168 191.15C65.2809 184.759 69.793 175.459 69.793 165.103C69.793 145.83 54.1691 130.206 34.8961 130.206C15.6238 130.207 0 145.83 0 165.103C0 175.459 4.5125 184.759 11.6762 191.15V191.15Z" fill="#4A80AA"/>
<path d="M13.3805 165.103C13.3805 148.119 25.5152 133.971 41.5871 130.85C39.4215 130.429 37.1855 130.206 34.8969 130.206C15.6238 130.207 0 145.83 0 165.103C0 175.459 4.5125 184.759 11.6762 191.15L13.8746 189.677H23.507C17.2492 183.37 13.3805 174.69 13.3805 165.103Z" fill="#407093"/>
<path d="M34.8968 165.103C41.379 165.103 46.6339 159.848 46.6339 153.366C46.6339 146.884 41.379 141.629 34.8968 141.629C28.4145 141.629 23.1597 146.884 23.1597 153.366C23.1597 159.848 28.4145 165.103 34.8968 165.103Z" fill="#FFDECF"/>
<path d="M38.0806 161.665C33.497 157.082 33.497 149.65 38.0806 145.066C38.8599 144.287 39.7228 143.644 40.6384 143.129C36.1669 140.618 30.4017 141.262 26.5974 145.066C22.0138 149.65 22.0138 157.082 26.5974 161.665C30.4017 165.47 36.1669 166.113 40.6384 163.602C39.7224 163.088 38.8599 162.445 38.0806 161.665V161.665Z" fill="#FFCEBE"/>
<path d="M44.6931 176.136C40.5407 176.136 28.4876 176.136 25.1005 176.136C17.6864 176.136 11.6763 182.146 11.6763 189.56V191.15C17.845 196.653 25.9794 200 34.8966 200C43.8138 200 51.9481 196.653 58.1169 191.15V189.56C58.1173 182.146 52.1071 176.136 44.6931 176.136V176.136Z" fill="#02C39A"/>
<path d="M29.0806 189.158C29.0806 182.871 33.4028 177.596 39.2376 176.136C34.061 176.136 27.4669 176.136 25.1005 176.136C17.6868 176.136 11.6763 182.146 11.6763 189.56V191.15C16.4735 195.43 22.4622 198.396 29.0806 199.508V189.158Z" fill="#028090"/>
<path d="M84.2848 100C84.2848 85.1372 93.6734 72.4692 106.843 67.5974C106.675 66.3899 105.642 65.4595 104.389 65.4595H95.6109C94.241 65.4595 93.1308 66.5696 93.1308 67.9396V73.8126C93.1308 74.8556 92.4797 75.7915 91.4973 76.1411C90.6934 76.4274 89.9078 76.7528 89.1437 77.1157C88.2008 77.5634 87.0781 77.3634 86.3398 76.6251L82.1867 72.4724C81.2184 71.504 79.648 71.504 78.6793 72.4724L72.4723 78.6798C71.5039 79.6481 71.5039 81.2185 72.4723 82.1868L76.625 86.3399C77.3633 87.0778 77.5633 88.2005 77.1152 89.1438C76.7523 89.9079 76.4266 90.6935 76.1406 91.4974C75.791 92.4798 74.8551 93.131 73.8117 93.131H67.9391C66.5691 93.131 65.459 94.2411 65.459 95.611V104.389C65.459 105.759 66.5695 106.869 67.9391 106.869H73.8121C74.8551 106.869 75.791 107.52 76.141 108.503C76.4273 109.307 76.7527 110.092 77.1156 110.856C77.5633 111.799 77.3633 112.922 76.625 113.66L72.4723 117.813C71.5039 118.782 71.5039 120.352 72.4723 121.32L78.6793 127.527C79.6477 128.496 81.218 128.496 82.1867 127.527L86.3395 123.375C87.0777 122.636 88.2004 122.436 89.1434 122.884C89.9074 123.247 90.693 123.573 91.4969 123.859C92.4793 124.209 93.1305 125.145 93.1305 126.188V132.061C93.1305 133.431 94.2406 134.541 95.6105 134.541H104.389C105.642 134.541 106.675 133.61 106.842 132.403C93.6734 127.531 84.2848 114.863 84.2848 100V100Z" fill="#FFC250"/>
</svg>
