<svg width="200" height="200" viewBox="0 0 200 200" fill="none" xmlns="http://www.w3.org/2000/svg">
<g clip-path="url(#clip0)">
<path d="M168.74 200H31.2596C29.0369 200 27.2354 198.198 27.2354 195.976V4.02422C27.2354 1.80156 29.0369 0 31.2596 0H146.707C147.774 0 148.798 0.423828 149.552 1.17852L171.585 23.2113C172.34 23.966 172.763 24.9895 172.763 26.0566V195.975C172.764 198.198 170.962 200 168.74 200Z" fill="#D6E3F4"/>
<path d="M172.764 26.0563V195.976C172.764 198.198 170.963 200 168.74 200H165.855V33.332C165.855 31.9852 164.763 30.8934 163.416 30.8934H148.374C144.783 30.8934 141.871 27.982 141.871 24.3902V0H146.708C147.287 0 147.855 0.124609 148.374 0.362109C148.809 0.559375 149.207 0.832812 149.553 1.17891L171.585 23.2109C171.931 23.557 172.205 23.9555 172.402 24.3898C172.64 24.9094 172.764 25.477 172.764 26.0563Z" fill="#BECDE2"/>
<path d="M172.403 24.3902H152.399C150.176 24.3902 148.375 22.5887 148.375 20.366V0.362122C148.809 0.559387 149.208 0.832825 149.553 1.17892L171.585 23.2109C171.932 23.5574 172.205 23.9559 172.403 24.3902Z" fill="#02C39A"/>
<path d="M68.2926 78.0488H78.0488L81.5371 65.6453C82.291 62.9641 83.7398 60.5402 85.6918 58.5539C90.0152 54.1531 92.6828 48.1203 92.6828 41.4637C92.6828 27.9933 81.7629 17.0734 68.2926 17.0734C54.8223 17.0734 43.9023 27.9933 43.9023 41.4637C43.9023 48.1203 46.5695 54.1535 50.8934 58.5539C52.8453 60.5406 54.2941 62.9644 55.048 65.6453L58.5363 78.0488H68.2926Z" fill="#F4DD45"/>
<path d="M84.7612 23.4754C85.6753 26.1195 86.1784 28.9555 86.1784 31.9106C86.1784 46.1668 74.6214 57.7234 60.3655 57.7234C55.7104 57.7234 51.3472 56.4848 47.5757 54.3285C48.5269 55.8567 49.6374 57.2758 50.8929 58.5535C52.8448 60.5402 54.2937 62.9641 55.0476 65.6449L58.5358 78.0485H68.2921H78.0483L81.5366 65.6449C82.2905 62.9637 83.7394 60.5399 85.6913 58.5535C90.0147 54.1527 92.6823 48.1199 92.6823 41.4633C92.6827 34.3418 89.6288 27.9344 84.7612 23.4754Z" fill="#ECC32E"/>
<path d="M78.0482 78.0488V86.1789C78.0482 88.4238 76.2283 90.2438 73.983 90.2438H62.6014C60.3564 90.2438 58.5361 88.4238 58.5361 86.1789V78.0488H78.0482Z" fill="#665E66"/>
<path d="M71.951 78.0488V86.1789C71.951 88.4238 70.1311 90.2438 67.8857 90.2438H73.9834C76.2283 90.2438 78.0486 88.4238 78.0486 86.1789V78.0488H71.951Z" fill="#544F57"/>
<path d="M93.593 158.537C91.4734 156.571 90.2035 153.703 90.4008 150.542C90.7125 145.55 94.7758 141.488 99.7676 141.179C105.594 140.818 110.431 145.437 110.431 151.185C110.431 154.09 109.194 156.706 107.219 158.537H147.525V146.52C147.525 144.298 145.724 142.496 143.501 142.496H137.393C135.663 142.496 134.15 141.378 133.586 139.742C132.974 137.969 132.224 136.259 131.349 134.627C130.518 133.078 130.825 131.162 132.069 129.919L136.077 125.91C137.649 124.339 137.649 121.791 136.077 120.219L130.426 114.568C128.854 112.996 126.306 112.996 124.735 114.568L120.42 118.882C119.194 120.109 117.328 120.392 115.769 119.631C114.502 119.013 113.192 118.468 111.845 118.003C110.208 117.439 109.094 115.919 109.094 114.188V108.089C109.094 105.866 107.293 104.065 105.07 104.065H97.0773C94.8547 104.065 93.0531 105.866 93.0531 108.089V113.756C93.0531 115.511 91.9227 117.085 90.2426 117.592C88.4223 118.142 86.6644 118.836 84.9824 119.661C83.4402 120.416 81.5836 120.076 80.3695 118.861L76.0758 114.568C74.5043 112.996 71.9562 112.996 70.3848 114.568L64.7332 120.219C63.1617 121.791 63.1617 124.339 64.7332 125.91L68.7418 129.919C69.9852 131.162 70.293 133.077 69.4617 134.627C68.5863 136.259 67.8367 137.968 67.225 139.742C66.6609 141.378 65.148 142.496 63.4176 142.496H57.3094C55.0867 142.496 53.2852 144.298 53.2852 146.52V158.537H93.593Z" fill="#E2DFE2"/>
<path d="M143.502 142.496H137.394C135.663 142.496 134.151 141.378 133.586 139.742C132.974 137.968 132.224 136.259 131.349 134.627C130.518 133.077 130.826 131.162 132.07 129.918L136.078 125.91C137.65 124.338 137.65 121.79 136.078 120.219L130.427 114.567C128.855 112.996 126.307 112.996 124.736 114.567L120.421 118.882C119.826 119.477 119.08 119.848 118.292 119.987C118.292 120.63 118.292 121.121 118.292 121.138C118.292 131.273 115.274 140.703 110.09 148.581C110.313 149.411 110.432 150.284 110.432 151.184C110.432 154.09 109.195 156.705 107.22 158.536H147.526V146.52C147.526 144.298 145.724 142.496 143.502 142.496Z" fill="#D3CED5"/>
<path d="M139.837 75.0305H107.317C105.65 75.0305 104.299 76.3816 104.299 78.0484V90.2433C104.299 91.9101 105.65 93.2613 107.317 93.2613H139.837C141.504 93.2613 142.855 91.9101 142.855 90.2433V78.0484C142.855 76.382 141.504 75.0305 139.837 75.0305Z" fill="#66EC9C"/>
<path d="M124.39 32.2863H107.317C105.65 32.2863 104.299 30.9351 104.299 29.2683C104.299 27.6015 105.65 26.2504 107.317 26.2504H124.39C126.057 26.2504 127.408 27.6015 127.408 29.2683C127.408 30.9351 126.057 32.2863 124.39 32.2863Z" fill="#665E66"/>
<path d="M152.032 48.1398H107.317C105.65 48.1398 104.299 46.7886 104.299 45.1218C104.299 43.4551 105.65 42.1039 107.317 42.1039H152.032C153.699 42.1039 155.05 43.4551 155.05 45.1218C155.05 46.7886 153.699 48.1398 152.032 48.1398Z" fill="#665E66"/>
<path d="M152.032 63.9937H107.317C105.65 63.9937 104.299 62.6425 104.299 60.9757C104.299 59.3089 105.65 57.9578 107.317 57.9578H152.032C153.699 57.9578 155.05 59.3089 155.05 60.9757C155.05 62.6425 153.699 63.9937 152.032 63.9937Z" fill="#665E66"/>
<path d="M85.7721 175.782H53.2865C51.6197 175.782 50.2686 174.431 50.2686 172.764C50.2686 171.098 51.6197 169.746 53.2865 169.746H85.7721C87.4389 169.746 88.79 171.098 88.79 172.764C88.79 174.431 87.4389 175.782 85.7721 175.782Z" fill="#665E66"/>
<path d="M85.7721 189.197H53.2865C51.6197 189.197 50.2686 187.846 50.2686 186.179C50.2686 184.512 51.6197 183.161 53.2865 183.161H85.7721C87.4389 183.161 88.79 184.512 88.79 186.179C88.79 187.846 87.4389 189.197 85.7721 189.197Z" fill="#665E66"/>
<path d="M147.526 175.782H115.04C113.374 175.782 112.022 174.431 112.022 172.764C112.022 171.098 113.374 169.746 115.04 169.746H147.526C149.192 169.746 150.544 171.098 150.544 172.764C150.544 174.431 149.192 175.782 147.526 175.782Z" fill="#665E66"/>
<path d="M147.526 189.197H115.04C113.374 189.197 112.022 187.846 112.022 186.179C112.022 184.512 113.374 183.161 115.04 183.161H147.526C149.192 183.161 150.544 184.512 150.544 186.179C150.544 187.846 149.192 189.197 147.526 189.197Z" fill="#665E66"/>
<path d="M93.5933 161.555H40.244C38.5772 161.555 37.2261 160.204 37.2261 158.537C37.2261 156.87 38.5772 155.519 40.244 155.519H93.5933C95.2601 155.519 96.6112 156.87 96.6112 158.537C96.6112 160.204 95.2601 161.555 93.5933 161.555Z" fill="#D3CED5"/>
<path d="M160.569 161.555H107.22C105.553 161.555 104.202 160.204 104.202 158.537C104.202 156.87 105.553 155.519 107.22 155.519H160.569C162.236 155.519 163.587 156.87 163.587 158.537C163.587 160.204 162.236 161.555 160.569 161.555Z" fill="#D3CED5"/>
</g>
<defs>
<clipPath id="clip0">
<rect width="200" height="200" fill="white"/>
</clipPath>
</defs>
</svg>
