<svg width="200" height="200" viewBox="0 0 200 200" fill="none" xmlns="http://www.w3.org/2000/svg">
<g clip-path="url(#clip0)">
<path d="M56.0362 200C86.9842 200 112.072 174.912 112.072 143.964C112.072 113.016 86.9842 87.9275 56.0362 87.9275C25.0883 87.9275 0 113.016 0 143.964C0 174.912 25.0883 200 56.0362 200Z" fill="#FF5E82"/>
<path d="M83.7121 95.2312C88.3594 103.396 91.0157 112.841 91.0157 122.907C91.0157 153.855 65.9274 178.943 34.9794 178.943C24.913 178.943 15.4681 176.287 7.30332 171.64C8.32011 173.426 9.43769 175.147 10.6385 176.804L0.357236 195.791C-0.988074 198.276 1.72364 200.988 4.2084 199.642L23.192 189.363C32.4212 196.052 43.7661 200 56.0364 200C86.9844 200 112.073 174.912 112.073 143.964C112.072 123.082 100.65 104.871 83.7121 95.2312Z" fill="#B7457D"/>
<path d="M76.0988 164.142L73.9672 162.01C76.4367 158.019 77.8668 153.319 77.8668 148.29C77.8668 133.867 66.1328 122.133 51.7098 122.133C37.2868 122.133 25.5532 133.867 25.5532 148.29C25.5532 162.713 37.2872 174.447 51.7102 174.447C56.7391 174.447 61.4395 173.017 65.4309 170.547L67.5625 172.678C68.741 173.857 70.2859 174.447 71.8305 174.447C73.375 174.447 74.9203 173.858 76.0984 172.678C78.4566 170.321 78.4566 166.499 76.0988 164.142ZM51.7102 162.374C43.9442 162.374 37.6259 156.055 37.6259 148.289C37.6259 140.523 43.9442 134.205 51.7102 134.205C59.4762 134.205 65.7946 140.523 65.7946 148.289C65.7946 149.948 65.5043 151.539 64.9754 153.018L64.0266 152.069C61.6696 149.712 57.8477 149.712 55.4903 152.069C53.1329 154.427 53.1329 158.248 55.4903 160.606L56.4391 161.555C54.9602 162.084 53.3688 162.374 51.7102 162.374Z" fill="#F2F3F7"/>
<path d="M129.879 140.241C168.605 140.241 199.999 108.847 199.999 70.1206C199.999 31.3941 168.605 0 129.879 0C91.1523 0 59.7583 31.3941 59.7583 70.1206C59.7583 108.847 91.1523 140.241 129.879 140.241Z" fill="#66EC9C"/>
<path d="M186.691 111.223C195.061 99.6735 200 85.4747 200 70.1204C200 45.3689 187.174 23.6139 167.808 11.135C174.853 22.0694 178.943 35.0889 178.943 49.0638C178.943 87.7907 147.549 119.184 108.822 119.184C94.8474 119.184 81.8283 115.095 70.8936 108.049C83.3724 127.416 105.127 140.241 129.879 140.241C145.233 140.241 159.432 135.302 170.981 126.932L194.734 139.794C197.843 141.477 201.236 138.084 199.553 134.975L186.691 111.223Z" fill="#02C39A"/>
<path d="M161.99 97.8804L137.845 33.4942C136.962 31.1379 134.71 29.5774 132.193 29.5774C129.677 29.5774 127.424 31.1379 126.541 33.4942L102.396 97.8804C101.226 101.001 102.807 104.481 105.929 105.652C109.05 106.823 112.529 105.241 113.7 102.119L114.872 98.9941H149.514L150.686 102.119C151.595 104.543 153.895 106.038 156.339 106.038C157.043 106.038 157.76 105.914 158.458 105.652C161.579 104.481 163.161 101.002 161.99 97.8804ZM119.4 86.9214L132.193 52.8047L144.988 86.9214H119.4Z" fill="#F2F3F7"/>
</g>
<defs>
<clipPath id="clip0">
<rect width="200" height="200" fill="white"/>
</clipPath>
</defs>
</svg>
