<svg width="200" height="200" viewBox="0 0 200 200" fill="none" xmlns="http://www.w3.org/2000/svg">
<path d="M147.595 123.558H52.4048C49.1689 123.558 46.5454 120.935 46.5454 117.699V94.2613C46.5454 92.8691 47.0415 91.5215 47.9442 90.4613C60.9673 75.1738 79.9407 66.4062 100 66.4062C120.059 66.4062 139.033 75.1738 152.056 90.4613C152.959 91.5215 153.455 92.8687 153.455 94.2613V117.699C153.455 120.935 150.831 123.558 147.595 123.558Z" fill="#FF5E82"/>
<path d="M147.595 123.558C150.831 123.558 153.455 120.935 153.455 117.699V94.2613C153.455 92.8691 152.959 91.5215 152.056 90.4613C139.033 75.1738 120.059 66.4062 100 66.4062V123.558H147.595Z" fill="#B7457D"/>
<path d="M100 200C99.3031 200 98.6059 199.876 97.9426 199.627L35.4426 176.189C33.1559 175.332 31.6406 173.146 31.6406 170.703V88.6719C31.6406 86.75 32.5828 84.9508 34.1625 83.8558C35.7418 82.7609 37.7578 82.5101 39.5574 83.1855L100 105.852L160.443 83.1855C162.241 82.5101 164.258 82.7609 165.838 83.8558C167.417 84.9508 168.359 86.75 168.359 88.6719V170.703C168.359 173.146 166.844 175.332 164.557 176.189L102.057 199.627C101.394 199.876 100.697 200 100 200Z" fill="#02C39A"/>
<path d="M164.557 176.189C166.844 175.332 168.359 173.146 168.359 170.703V88.6719C168.359 86.75 167.417 84.9508 165.838 83.8558C164.258 82.7609 162.241 82.5101 160.443 83.1855L100 105.852V200C100.697 200 101.394 199.876 102.057 199.627L164.557 176.189Z" fill="#028090"/>
<path d="M100 78.125C78.4605 78.125 60.9375 60.602 60.9375 39.0625C60.9375 17.523 78.4605 0 100 0C121.539 0 139.062 17.523 139.062 39.0625C139.062 60.602 121.539 78.125 100 78.125Z" fill="#FFD6AA"/>
<path d="M139.062 39.0625C139.062 17.523 121.539 0 100 0V78.125C121.539 78.125 139.062 60.602 139.062 39.0625Z" fill="#FAC68F"/>
<path d="M167.383 148.438H161.523C157.754 148.438 154.688 145.371 154.688 141.602V122.07C154.688 118.301 157.754 115.234 161.523 115.234H167.383C176.537 115.234 183.984 122.682 183.984 131.836C183.984 140.99 176.537 148.438 167.383 148.438Z" fill="#FAC68F"/>
<path d="M38.4766 148.438H32.6172C23.4629 148.438 16.0156 140.99 16.0156 131.836C16.0156 122.682 23.4629 115.234 32.6172 115.234H38.4766C42.2457 115.234 45.3125 118.301 45.3125 122.07V141.602C45.3125 145.371 42.2457 148.438 38.4766 148.438Z" fill="#FFD6AA"/>
</svg>
