<svg width="300" height="300" viewBox="0 0 300 300" fill="none" xmlns="http://www.w3.org/2000/svg">
<g clip-path="url(#clip0)">
<path d="M218.137 47.55C189.485 47.55 163.036 38.124 141.719 22.2047C120.401 38.124 93.952 47.55 65.3002 47.55C55.876 47.55 46.6932 46.5211 37.8496 44.5858L46.9311 167.644C49.4172 201.334 67.7436 231.845 96.3168 249.866L141.718 278.5L187.285 249.935C216.082 231.884 234.53 201.17 236.939 167.269L245.659 44.5699C236.794 46.5153 227.587 47.55 218.137 47.55Z" fill="#02C39A"/>
<path d="M218.137 47.5494C212.615 47.5494 207.177 47.1961 201.839 46.517L194.895 144.225C192.486 178.126 174.038 208.84 145.241 226.891L102.436 253.725L141.718 278.5L187.286 249.935C216.082 231.884 234.53 201.169 236.94 167.269L245.66 44.5699C236.794 46.5153 227.587 47.5494 218.137 47.5494Z" fill="#028090"/>
<path d="M146.504 298.62C143.559 300.465 139.818 300.46 136.879 298.606L85.8684 266.433C52.1864 245.19 30.3274 208.798 27.3971 169.084L16.9768 27.8942C16.6803 23.8735 20.3378 20.7012 24.2759 21.5625L42.0374 25.449C49.654 27.116 57.4809 27.961 65.3003 27.961C88.8327 27.961 111.205 20.543 129.998 6.50919L136.309 1.7965C139.517 -0.599402 143.92 -0.599402 147.128 1.7965L153.439 6.50919C172.232 20.543 194.604 27.961 218.137 27.961C225.979 27.961 233.826 27.1113 241.461 25.4361L259.182 21.5467C263.115 20.6836 266.771 23.8447 266.486 27.8608L256.48 168.656C253.638 208.647 231.661 245.237 197.691 266.531L146.504 298.62ZM61.7987 67.0969C60.3778 67.0629 59.2393 68.2641 59.3442 69.6815L66.4675 166.201C68.4872 193.573 83.5528 218.656 106.768 233.297L139.186 253.744C140.754 254.732 142.749 254.735 144.32 253.751L176.883 233.338C200.296 218.661 215.443 193.443 217.402 165.88L224.239 69.6721C224.34 68.2565 223.202 67.0588 221.783 67.094C220.568 67.1238 219.353 67.1391 218.137 67.1391C191.702 67.1391 166.333 60.2584 143.882 47.1123C142.543 46.3283 140.896 46.3283 139.557 47.1123C117.105 60.2584 91.7366 67.1391 65.3014 67.1391C64.1331 67.1385 62.9659 67.1244 61.7987 67.0969Z" fill="#B4B4B4"/>
<path d="M259.182 21.5472L249.583 23.6543L239.981 158.769C237.139 198.76 215.161 235.349 181.192 256.644L125.599 291.493L136.878 298.607C139.817 300.461 143.559 300.466 146.503 298.62L197.691 266.533C231.66 245.238 253.638 208.649 256.479 168.657L266.485 27.8625C266.771 23.8453 263.114 20.6842 259.182 21.5472Z" fill="#8C94A0"/>
<path d="M182.867 135.488C182.867 144.708 179.834 153.22 174.711 160.08C167.21 170.123 155.229 170.252 141.731 170.252C128.233 170.252 116.252 170.123 108.752 160.08C103.628 153.22 100.595 144.708 100.595 135.488C100.595 112.768 119.013 94.3506 141.732 94.3506C164.451 94.3506 182.867 112.768 182.867 135.488Z" fill="#D4E5FD"/>
<path d="M141.731 148.165C151.043 148.165 158.592 140.616 158.592 131.304C158.592 121.991 151.043 114.442 141.731 114.442C132.418 114.442 124.869 121.991 124.869 131.304C124.869 140.616 132.418 148.165 141.731 148.165Z" fill="#8C94A0"/>
<path d="M151.428 145.793H132.033C121.869 145.793 113.068 151.603 108.751 160.079C116.252 170.122 128.232 176.624 141.73 176.624C155.229 176.624 167.209 170.122 174.71 160.079C170.393 151.603 161.592 145.793 151.428 145.793Z" fill="#8C94A0"/>
<path d="M232.37 261.512C257.952 261.512 278.69 240.773 278.69 215.191C278.69 189.61 257.952 168.871 232.37 168.871C206.788 168.871 186.05 189.61 186.05 215.191C186.05 240.773 206.788 261.512 232.37 261.512Z" fill="#D4E5FD"/>
<path d="M256.062 175.381C260.196 182.313 262.573 190.417 262.573 199.075C262.573 224.657 241.835 245.395 216.253 245.395C207.596 245.395 199.488 243.012 192.556 238.879C200.638 252.43 215.446 261.512 232.37 261.512C257.952 261.512 278.69 240.774 278.69 215.192C278.69 198.267 269.614 183.463 256.062 175.381Z" fill="#BECDE2"/>
<path d="M231.164 231.435C230.016 231.435 228.908 230.998 228.067 230.207L207.471 210.828C205.652 209.117 205.565 206.256 207.276 204.438C208.987 202.62 211.848 202.532 213.666 204.243L230.821 220.384L275.093 168.936C276.722 167.044 279.576 166.83 281.468 168.458C283.361 170.087 283.575 172.941 281.946 174.833L234.591 229.863C233.786 230.798 232.634 231.364 231.403 231.429C231.323 231.433 231.244 231.435 231.164 231.435Z" fill="#66EC9C"/>
</g>
<defs>
<clipPath id="clip0">
<rect width="300" height="300" fill="white"/>
</clipPath>
</defs>
</svg>
