<svg width="200" height="200" viewBox="0 0 200 200" fill="none" xmlns="http://www.w3.org/2000/svg">
<path d="M184.434 59.375C184.434 115.152 100 124.926 100 124.926C61.1602 124.926 0 103.516 0 103.516V17.5781C0 7.88672 7.88672 0 17.5781 0H100C100 0 184.434 3.59766 184.434 59.375Z" fill="#02C39A"/>
<path d="M182.422 0H100V124.926C138.84 124.926 200 103.516 200 103.516V17.5781C200 7.88672 192.113 0 182.422 0Z" fill="#B7457D"/>
<path d="M153.125 188.281H136.869C134.301 186.766 129.243 181.726 123.94 164.961C120.371 153.68 118.618 142.926 118.601 142.821C118.145 139.98 115.693 137.89 112.816 137.89H87.5C84.6238 137.89 82.1727 139.979 81.7148 142.819C81.6977 142.926 79.9438 153.679 76.3758 164.961C71.0727 181.726 66.0145 186.766 63.4465 188.281H46.875C43.6391 188.281 41.0156 190.905 41.0156 194.141C41.0156 197.377 43.6391 200 46.875 200H153.125C156.361 200 158.984 197.377 158.984 194.141C158.984 190.905 156.361 188.281 153.125 188.281Z" fill="#DAD0CB"/>
<path d="M153.125 188.281H136.869C134.301 186.766 129.243 181.726 123.94 164.961C120.371 153.68 118.618 142.926 118.601 142.821C118.145 139.98 115.693 137.89 112.816 137.89H100V200H153.125C156.361 200 158.984 197.376 158.984 194.14C158.984 190.904 156.361 188.281 153.125 188.281Z" fill="#C3B9B4"/>
<path d="M164.695 70.9715C160.701 67.7754 155.482 66.0156 150 66.0156C138.154 66.0156 128.516 74.2516 128.516 84.375V109.375C128.516 112.611 131.139 115.234 134.375 115.234H165.625C168.861 115.234 171.484 112.611 171.484 109.375V84.375C171.484 79.3086 169.01 74.423 164.695 70.9715Z" fill="#02C39A"/>
<path d="M165.625 115.234C168.861 115.234 171.484 112.611 171.484 109.375V84.375C171.484 79.3086 169.01 74.423 164.695 70.9715C160.701 67.7754 155.482 66.0156 150 66.0156V115.234H165.625Z" fill="#028090"/>
<path d="M150 77.7344C160.14 77.7344 168.359 69.5146 168.359 59.375C168.359 49.2354 160.14 41.0156 150 41.0156C139.86 41.0156 131.641 49.2354 131.641 59.375C131.641 69.5146 139.86 77.7344 150 77.7344Z" fill="#FED2A4"/>
<path d="M168.359 59.375C168.359 49.2516 160.123 41.0156 150 41.0156V77.7344C160.123 77.7344 168.359 69.4984 168.359 59.375Z" fill="#FFBD86"/>
<path d="M64.6953 70.9715C60.7008 67.7754 55.4816 66.0156 50 66.0156C38.1535 66.0156 28.5156 74.2516 28.5156 84.375V109.375C28.5156 112.611 31.1391 115.234 34.375 115.234H65.625C68.8609 115.234 71.4844 112.611 71.4844 109.375V84.375C71.4844 79.3086 69.0102 74.423 64.6953 70.9715Z" fill="#FF5E83"/>
<path d="M65.625 115.234C68.8609 115.234 71.4844 112.611 71.4844 109.375V84.375C71.4844 79.3086 69.0102 74.423 64.6953 70.9715C60.7008 67.7754 55.4816 66.0156 50 66.0156V115.234H65.625Z" fill="#B7457D"/>
<path d="M50 77.7344C60.1396 77.7344 68.3594 69.5146 68.3594 59.375C68.3594 49.2354 60.1396 41.0156 50 41.0156C39.8604 41.0156 31.6406 49.2354 31.6406 59.375C31.6406 69.5146 39.8604 77.7344 50 77.7344Z" fill="#FED2A4"/>
<path d="M68.3594 59.375C68.3594 49.2516 60.1234 41.0156 50 41.0156V77.7344C60.1234 77.7344 68.3594 69.4984 68.3594 59.375Z" fill="#FFBD86"/>
<path d="M200 103.516V132.031C200 141.723 192.113 149.609 182.422 149.609H174.609C174.609 149.609 172.613 141.348 168.75 141.348C164.887 141.348 162.891 149.609 162.891 149.609H17.5781C7.88672 149.609 0 141.723 0 132.031V103.516H200Z" fill="#F5F0EB"/>
<path d="M200 103.516V132.031C200 141.723 192.113 149.609 182.422 149.609H174.609C174.609 149.609 172.613 141.348 168.75 141.348C164.887 141.348 162.891 149.609 162.891 149.609H100V103.516H200Z" fill="#DAD0CB"/>
<path d="M174.609 134.375V149.609H162.891V134.375C162.891 131.141 165.516 128.516 168.75 128.516C171.984 128.516 174.609 131.141 174.609 134.375Z" fill="#C3B9B4"/>
</svg>
