<svg width="36" height="36" viewBox="0 0 36 36" fill="none" xmlns="http://www.w3.org/2000/svg">
<path d="M34.0851 0H1.91489C0.857489 0 0 0.857489 0 1.91489V34.0851C0 35.1425 0.857489 36 1.91489 36H34.0851C35.1429 36 36 35.1425 36 34.0851V1.91489C36 0.857489 35.1429 0 34.0851 0ZM25.6328 8.18196L22.8654 8.18311C20.6962 8.18311 20.276 9.21409 20.276 10.7272V14.0634H25.4505L25.4489 19.2887H20.276V32.6976H14.8795V19.2887H10.3672V14.0634H14.8795V10.2098C14.8795 5.73779 17.6113 3.30243 21.6 3.30243L25.6328 3.30894V8.18196Z" fill="#3B5266"/>
</svg>
