<svg width="32" height="32" viewBox="0 0 32 32" fill="none" xmlns="http://www.w3.org/2000/svg">
<path d="M29.074 13.3885H28V13.3332H16V18.6665H23.5354C22.436 21.7712 19.482 23.9998 16 23.9998C11.582 23.9998 8.00002 20.4178 8.00002 15.9998C8.00002 11.5818 11.582 7.99984 16 7.99984C18.0394 7.99984 19.8947 8.76917 21.3074 10.0258L25.0787 6.2545C22.6974 4.03517 19.512 2.6665 16 2.6665C8.63669 2.6665 2.66669 8.6365 2.66669 15.9998C2.66669 23.3632 8.63669 29.3332 16 29.3332C23.3634 29.3332 29.3334 23.3632 29.3334 15.9998C29.3334 15.1058 29.2414 14.2332 29.074 13.3885Z" fill="#FFC107"/>
<path d="M4.20392 9.79384L8.58459 13.0065C9.76992 10.0718 12.6406 7.99984 15.9999 7.99984C18.0393 7.99984 19.8946 8.76917 21.3073 10.0258L25.0786 6.2545C22.6973 4.03517 19.5119 2.6665 15.9999 2.6665C10.8786 2.6665 6.43725 5.55784 4.20392 9.79384Z" fill="#FF3D00"/>
<path d="M16.0001 29.3333C19.4441 29.3333 22.5734 28.0153 24.9394 25.872L20.8127 22.38C19.4291 23.4322 17.7384 24.0013 16.0001 24C12.5321 24 9.5874 21.7886 8.47807 18.7026L4.13007 22.0526C6.33673 26.3706 10.8181 29.3333 16.0001 29.3333Z" fill="#4CAF50"/>
<path d="M29.074 13.3888H28V13.3335H16V18.6668H23.5353C23.0095 20.1444 22.0622 21.4356 20.8107 22.3808L20.8127 22.3795L24.9393 25.8715C24.6473 26.1368 29.3333 22.6668 29.3333 16.0002C29.3333 15.1062 29.2413 14.2335 29.074 13.3888Z" fill="#1976D2"/>
</svg>
