<svg width="36" height="36" viewBox="0 0 36 36" fill="none" xmlns="http://www.w3.org/2000/svg">
<path d="M24.7972 12.3149H28.1601C28.8966 12.3149 29.499 11.7121 29.499 10.9753V7.76935C29.499 7.03211 28.8966 6.42969 28.1601 6.42969H24.7972C24.0603 6.42969 23.4579 7.03211 23.4579 7.76935V10.9753C23.4579 11.7121 24.0603 12.3149 24.7972 12.3149Z" fill="#3B5266"/>
<path d="M18.0282 23.7245C21.3282 23.7245 24.0034 21.1324 24.0034 17.935C24.0034 14.7376 21.3282 12.1455 18.0282 12.1455C14.7282 12.1455 12.053 14.7376 12.053 17.935C12.053 21.1324 14.7282 23.7245 18.0282 23.7245Z" fill="#3B5266"/>
<path d="M34.0851 0H1.91489C0.857489 0 0 0.857489 0 1.91489V34.0851C0 35.1425 0.857489 36 1.91489 36H34.0851C35.1429 36 36 35.1425 36 34.0851V1.91489C36 0.857489 35.1429 0 34.0851 0ZM32.876 29.0574C32.876 31.3211 31.1576 32.876 29.0574 32.876H6.94264C4.84238 32.876 3.12396 31.3211 3.12396 29.0574V6.94264C3.12396 4.67885 4.842 3.12396 6.94264 3.12396H29.0574C31.1572 3.12396 32.876 4.67885 32.876 6.94264V29.0574Z" fill="#3B5266"/>
<path d="M27.2761 18.259C27.2761 23.2078 23.1353 27.2192 18.0287 27.2192C12.9213 27.2192 8.78092 23.2075 8.78092 18.259C8.78092 17.372 8.91496 16.5153 9.16275 15.7061H6.42981V28.2735C6.42981 28.9238 6.96253 29.4561 7.61283 29.4561H28.3316C28.9815 29.4561 29.5142 28.9238 29.5142 28.2735V15.7061H26.8954C27.1421 16.5153 27.2761 17.3716 27.2761 18.259Z" fill="#3B5266"/>
</svg>
