<svg width="36" height="36" viewBox="0 0 36 36" fill="none" xmlns="http://www.w3.org/2000/svg">
<path d="M34.0851 0H1.91489C0.857489 0 0 0.857489 0 1.91489V34.0851C0 35.1425 0.857489 36 1.91489 36H34.0851C35.1429 36 36 35.1425 36 34.0851V1.91489C36 0.857489 35.1429 0 34.0851 0ZM10.116 32.2472H4.19974V13.2139H10.1156L10.116 32.2472ZM7.15902 10.6123C5.26289 10.6123 3.72792 9.07545 3.72792 7.18162C3.7283 5.29047 5.26366 3.75319 7.15902 3.75319C9.05055 3.75319 10.5871 5.2897 10.5871 7.18162C10.5871 9.07545 9.05055 10.6123 7.15902 10.6123ZM32.2721 32.2468H26.3612V22.9914C26.3612 20.7839 26.321 17.9445 23.2863 17.9445C20.2098 17.9445 19.7368 20.3488 19.7368 22.8309V32.2468H13.8251V13.2139H19.4994V15.8143H19.5786C20.3687 14.318 22.2989 12.7402 25.1755 12.7402C31.1657 12.7402 32.2717 16.6826 32.2717 21.8064V32.2468H32.2721Z" fill="#3B5266"/>
</svg>
