<svg width="36" height="36" viewBox="0 0 36 36" fill="none" xmlns="http://www.w3.org/2000/svg">
<path d="M34.0851 0H1.91489C0.857489 0 0 0.857489 0 1.91489V34.0851C0 35.1425 0.857489 36 1.91489 36H34.0851C35.1429 36 36 35.1425 36 34.0851V1.91489C36 0.857489 35.1429 0 34.0851 0ZM32.8879 8.92417C32.0752 10.1409 31.068 11.1922 29.8942 12.0508C29.9034 12.2867 29.908 12.523 29.908 12.7612C29.908 21.3074 23.4054 30.1469 12.5223 30.1469C9.19532 30.1469 5.95647 29.1975 3.15536 27.4014C3.09715 27.3642 3.07226 27.2918 3.096 27.2267C3.11936 27.162 3.18562 27.1222 3.25264 27.1294C3.72332 27.1854 4.20319 27.2133 4.68077 27.2133C7.26894 27.2133 9.71923 26.4133 11.7915 24.8951C9.30715 24.6857 7.17204 23.004 6.40379 20.6062C6.38809 20.556 6.39957 20.5024 6.43443 20.4626C6.46889 20.4231 6.52213 20.4066 6.57306 20.4154C7.26128 20.5464 7.96098 20.5541 8.63617 20.4453C6.07404 19.6487 4.27289 17.249 4.27289 14.5164L4.27366 14.4368C4.27481 14.3847 4.30315 14.3372 4.34757 14.3119C4.39277 14.2859 4.44868 14.2855 4.49349 14.3108C5.16102 14.6815 5.9017 14.9201 6.65923 15.0109C5.18706 13.8374 4.3223 12.0585 4.3223 10.1554C4.3223 9.05745 4.61336 7.97783 5.16255 7.03494C5.18706 6.99319 5.23072 6.96523 5.27936 6.96217C5.328 6.95719 5.37511 6.97826 5.40536 7.01655C8.4194 10.7127 12.852 12.9891 17.5921 13.2813C17.5125 12.883 17.4726 12.4732 17.4726 12.0592C17.4726 8.63694 20.2573 5.85306 23.6792 5.85306C25.3628 5.85306 26.9877 6.54472 28.1528 7.75264C29.4672 7.48494 30.7176 7.002 31.8734 6.31647C31.9266 6.28506 31.9929 6.29004 32.0411 6.32796C32.089 6.36664 32.1086 6.4306 32.0894 6.48919C31.6984 7.71434 30.9336 8.78285 29.908 9.55455C30.8742 9.38643 31.8129 9.10187 32.7045 8.70664C32.7646 8.67906 32.8354 8.6963 32.878 8.74647C32.9205 8.79702 32.9251 8.86902 32.8879 8.92417Z" fill="#3B5266"/>
</svg>
