<svg width="632" height="208" viewBox="0 0 632 208" fill="none" xmlns="http://www.w3.org/2000/svg">
<g filter="url(#filter0_dd)">
<path d="M12.4277 193V15.2656H76.2705C99.1383 15.2656 116.513 19.4567 128.395 27.8389C140.357 36.221 146.339 48.3874 146.339 64.3379C146.339 73.5339 144.223 81.387 139.991 87.8975C135.759 94.4079 129.534 99.2093 121.314 102.302C130.592 104.743 137.713 109.3 142.677 115.974C147.641 122.647 150.123 130.785 150.123 140.388C150.123 157.803 144.589 170.905 133.521 179.694C122.535 188.402 106.218 192.837 84.5713 193H12.4277ZM55.2744 117.438V160.041H83.3506C91.0817 160.041 97.0225 158.291 101.173 154.792C105.323 151.211 107.398 146.206 107.398 139.777C107.398 124.966 100.034 117.52 85.3037 117.438H55.2744ZM55.2744 89.3623H77.6133C86.972 89.2809 93.6452 87.5719 97.6328 84.2354C101.62 80.8988 103.614 75.9753 103.614 69.4648C103.614 61.9779 101.458 56.6068 97.1445 53.3516C92.8314 50.015 85.8734 48.3467 76.2705 48.3467H55.2744V89.3623ZM216.651 160.041H291.236V193H173.805V15.2656H216.651V160.041ZM452.003 107.795C452.003 125.129 448.788 140.469 442.359 153.815C435.93 167.162 426.775 177.456 414.894 184.699C403.093 191.861 389.625 195.441 374.488 195.441C359.352 195.441 345.924 191.983 334.205 185.065C322.486 178.067 313.331 168.098 306.739 155.158C300.229 142.219 296.811 127.367 296.485 110.603V100.593C296.485 83.1774 299.659 67.8372 306.007 54.5723C312.436 41.2259 321.591 30.9313 333.473 23.6885C345.436 16.4456 359.026 12.8242 374.244 12.8242C389.299 12.8242 402.727 16.4049 414.527 23.5664C426.327 30.7279 435.483 40.9411 441.993 54.2061C448.585 67.3896 451.922 82.5264 452.003 99.6162V107.795ZM408.424 100.349C408.424 82.6891 405.453 69.3021 399.513 60.1875C393.653 50.9915 385.23 46.3936 374.244 46.3936C352.76 46.3936 341.407 62.5068 340.187 94.7334L340.064 107.795C340.064 125.21 342.953 138.597 348.731 147.956C354.509 157.315 363.095 161.994 374.488 161.994C385.312 161.994 393.653 157.396 399.513 148.2C405.372 139.004 408.342 125.78 408.424 108.527V100.349ZM619.605 171.027C613.014 178.352 603.37 184.252 590.675 188.728C577.979 193.203 564.063 195.441 548.927 195.441C525.652 195.441 507.057 188.321 493.141 174.079C479.225 159.838 471.778 140.021 470.802 114.631L470.68 99.25C470.68 81.7533 473.772 66.4945 479.957 53.4736C486.142 40.3714 494.972 30.321 506.446 23.3223C518.002 16.2422 531.349 12.7021 546.485 12.7021C568.621 12.7021 585.792 17.7884 597.999 27.9609C610.287 38.0521 617.449 53.1481 619.483 73.249H578.224C576.759 63.3206 573.585 56.2406 568.702 52.0088C563.819 47.777 556.902 45.6611 547.95 45.6611C537.208 45.6611 528.907 50.2184 523.048 59.333C517.188 68.4476 514.218 81.4684 514.137 98.3955V109.138C514.137 126.879 517.148 140.225 523.17 149.177C529.273 158.047 538.836 162.482 551.856 162.482C563.006 162.482 571.306 160 576.759 155.036V127.448H546.974V98.0293H619.605V171.027Z" fill="#F2F3F7"/>
</g>
<defs>
<filter id="filter0_dd" x="0.427734" y="0.702148" width="631.178" height="206.739" filterUnits="userSpaceOnUse" color-interpolation-filters="sRGB">
<feFlood flood-opacity="0" result="BackgroundImageFix"/>
<feColorMatrix in="SourceAlpha" type="matrix" values="0 0 0 0 0 0 0 0 0 0 0 0 0 0 0 0 0 0 127 0"/>
<feOffset dx="-6" dy="-6"/>
<feGaussianBlur stdDeviation="3"/>
<feColorMatrix type="matrix" values="0 0 0 0 1 0 0 0 0 1 0 0 0 0 1 0 0 0 1 0"/>
<feBlend mode="normal" in2="BackgroundImageFix" result="effect1_dropShadow"/>
<feColorMatrix in="SourceAlpha" type="matrix" values="0 0 0 0 0 0 0 0 0 0 0 0 0 0 0 0 0 0 127 0"/>
<feOffset dx="6" dy="6"/>
<feGaussianBlur stdDeviation="3"/>
<feColorMatrix type="matrix" values="0 0 0 0 0.745098 0 0 0 0 0.803922 0 0 0 0 0.886275 0 0 0 1 0"/>
<feBlend mode="normal" in2="effect1_dropShadow" result="effect2_dropShadow"/>
<feBlend mode="normal" in="SourceGraphic" in2="effect2_dropShadow" result="shape"/>
</filter>
</defs>
</svg>
