<svg width="131" height="131" viewBox="0 0 131 131" fill="none" xmlns="http://www.w3.org/2000/svg">
<g filter="url(#filter0_dd)">
<path d="M86.3585 65.5L115.954 35.9043C120.015 31.8433 120.015 25.1981 115.954 21.1371L109.863 15.0457C105.802 10.9848 99.1567 10.9848 95.0957 15.0457L65.5 44.6415L35.9043 15.0457C31.8433 10.9848 25.1981 10.9848 21.1371 15.0457L15.0457 21.1371C10.9848 25.1981 10.9848 31.8433 15.0457 35.9043L44.6415 65.5L15.0457 95.0957C10.9848 99.1567 10.9848 105.802 15.0457 109.863L21.1371 115.954C25.1981 120.015 31.8433 120.015 35.9043 115.954L65.5 86.3585L95.0957 115.954C99.1567 120.015 105.802 120.015 109.863 115.954L115.954 109.863C120.015 105.802 120.015 99.1567 115.954 95.0957L86.3585 65.5Z" fill="#F2F3F7"/>
</g>
<defs>
<filter id="filter0_dd" x="0" y="0" width="131" height="131" filterUnits="userSpaceOnUse" color-interpolation-filters="sRGB">
<feFlood flood-opacity="0" result="BackgroundImageFix"/>
<feColorMatrix in="SourceAlpha" type="matrix" values="0 0 0 0 0 0 0 0 0 0 0 0 0 0 0 0 0 0 127 0"/>
<feOffset dx="-6" dy="-6"/>
<feGaussianBlur stdDeviation="3"/>
<feColorMatrix type="matrix" values="0 0 0 0 1 0 0 0 0 1 0 0 0 0 1 0 0 0 1 0"/>
<feBlend mode="normal" in2="BackgroundImageFix" result="effect1_dropShadow"/>
<feColorMatrix in="SourceAlpha" type="matrix" values="0 0 0 0 0 0 0 0 0 0 0 0 0 0 0 0 0 0 127 0"/>
<feOffset dx="6" dy="6"/>
<feGaussianBlur stdDeviation="3"/>
<feColorMatrix type="matrix" values="0 0 0 0 0.745098 0 0 0 0 0.803922 0 0 0 0 0.886275 0 0 0 1 0"/>
<feBlend mode="normal" in2="effect1_dropShadow" result="effect2_dropShadow"/>
<feBlend mode="normal" in="SourceGraphic" in2="effect2_dropShadow" result="shape"/>
</filter>
</defs>
</svg>
