<svg width="813" height="338" viewBox="0 0 813 338" fill="none" xmlns="http://www.w3.org/2000/svg">
<g filter="url(#filter0_dd)">
<path d="M115.399 74.7646C115.399 85.6143 113.6 95.0942 110.001 103.205C106.403 111.261 101.435 117.733 95.0967 122.621L114.03 137.606L96.5469 152.431L71.3296 132.128C68.9663 132.45 66.603 132.611 64.2397 132.611C54.2495 132.611 45.3872 130.302 37.6528 125.683C29.9185 121.063 23.876 114.457 19.5254 105.863C15.2285 97.2695 12.9995 87.3867 12.8384 76.2148V70.0112C12.8384 58.4634 14.9331 48.312 19.1226 39.5571C23.3657 30.8022 29.3813 24.0347 37.1694 19.2544C45.0112 14.4741 53.981 12.084 64.0786 12.084C74.0151 12.084 82.8774 14.4473 90.6655 19.1738C98.4536 23.9004 104.496 30.6411 108.793 39.396C113.144 48.0972 115.346 58.0874 115.399 69.3667V74.7646ZM86.6372 69.8501C86.6372 58.1948 84.6768 49.3594 80.7559 43.3438C76.8887 37.2744 71.3296 34.2397 64.0786 34.2397C56.6128 34.2397 51 37.2207 47.2402 43.1826C43.4805 49.1445 41.5737 57.8726 41.52 69.3667V74.7646C41.52 86.3125 43.4268 95.1748 47.2402 101.352C51.0537 107.475 56.7202 110.536 64.2397 110.536C71.437 110.536 76.9424 107.501 80.7559 101.432C84.623 95.3628 86.5835 86.6348 86.6372 75.248V69.8501ZM221.828 13.6953V90.4751C221.828 99.1763 219.975 106.723 216.269 113.114C212.562 119.452 207.245 124.286 200.316 127.616C193.388 130.946 185.197 132.611 175.744 132.611C161.457 132.611 150.204 128.905 141.986 121.493C133.769 114.081 129.579 103.93 129.418 91.0391V13.6953H157.858V91.603C158.18 104.44 164.142 110.858 175.744 110.858C181.598 110.858 186.029 109.247 189.037 106.024C192.045 102.802 193.549 97.5649 193.549 90.314V13.6953H221.828ZM312.304 81.2905H267.831V109.247H320.36V131H239.552V13.6953H320.521V35.5288H267.831V60.2627H312.304V81.2905ZM392.387 99.8208C392.387 95.6851 390.91 92.4624 387.956 90.1528C385.055 87.8433 379.926 85.4531 372.567 82.9824C365.209 80.5117 359.193 78.1216 354.521 75.812C339.32 68.3462 331.72 58.0874 331.72 45.0356C331.72 38.5366 333.6 32.8164 337.36 27.875C341.173 22.8799 346.544 19.0127 353.473 16.2734C360.402 13.4805 368.19 12.084 376.837 12.084C385.27 12.084 392.816 13.5879 399.477 16.5957C406.19 19.6035 411.4 23.9004 415.106 29.4863C418.812 35.0186 420.666 41.3564 420.666 48.5H392.467C392.467 43.7197 390.99 40.0137 388.036 37.3818C385.136 34.75 381.188 33.4341 376.193 33.4341C371.144 33.4341 367.143 34.562 364.188 36.8179C361.288 39.02 359.838 41.8398 359.838 45.2773C359.838 48.2852 361.449 51.0244 364.672 53.4951C367.895 55.9121 373.561 58.4365 381.671 61.0684C389.782 63.6465 396.442 66.4395 401.652 69.4473C414.328 76.752 420.666 86.8228 420.666 99.6597C420.666 109.918 416.798 117.975 409.064 123.83C401.33 129.684 390.722 132.611 377.24 132.611C367.733 132.611 359.113 130.919 351.378 127.536C343.698 124.098 337.897 119.425 333.976 113.517C330.109 107.555 328.175 100.707 328.175 92.9727H356.535C356.535 99.2568 358.146 103.903 361.369 106.911C364.645 109.865 369.936 111.342 377.24 111.342C381.913 111.342 385.592 110.348 388.278 108.361C391.017 106.32 392.387 103.473 392.387 99.8208ZM527.255 35.5288H492.047V131H463.769V35.5288H429.206V13.6953H527.255V35.5288ZM569.391 131H541.193V13.6953H569.391V131ZM688.388 74.7646C688.388 86.2051 686.266 96.3296 682.023 105.138C677.78 113.947 671.737 120.741 663.896 125.521C656.107 130.248 647.218 132.611 637.228 132.611C627.238 132.611 618.375 130.329 610.641 125.763C602.907 121.144 596.864 114.564 592.514 106.024C588.217 97.4844 585.961 87.6821 585.746 76.6177V70.0112C585.746 58.5171 587.841 48.3926 592.03 39.6377C596.273 30.8291 602.316 24.0347 610.158 19.2544C618.053 14.4741 627.023 12.084 637.067 12.084C647.003 12.084 655.866 14.4473 663.654 19.1738C671.442 23.9004 677.484 30.6411 681.781 39.396C686.132 48.0972 688.334 58.0874 688.388 69.3667V74.7646ZM659.625 69.8501C659.625 58.1948 657.665 49.3594 653.744 43.3438C649.877 37.2744 644.318 34.2397 637.067 34.2397C622.887 34.2397 615.395 44.8745 614.589 66.144L614.508 74.7646C614.508 86.2588 616.415 95.0942 620.229 101.271C624.042 107.448 629.708 110.536 637.228 110.536C644.372 110.536 649.877 107.501 653.744 101.432C657.611 95.3628 659.572 86.6348 659.625 75.248V69.8501ZM800.939 131H772.821L731.249 58.0068V131H702.97V13.6953H731.249L772.741 86.6885V13.6953H800.939V131ZM228.676 277.271H183.075V324H154.796V206.695H233.268V228.529H183.075V255.519H228.676V277.271ZM344.369 267.765C344.369 279.205 342.248 289.33 338.004 298.138C333.761 306.947 327.719 313.741 319.877 318.521C312.089 323.248 303.2 325.611 293.209 325.611C283.219 325.611 274.357 323.329 266.623 318.763C258.888 314.144 252.846 307.564 248.495 299.024C244.198 290.484 241.942 280.682 241.728 269.618V263.011C241.728 251.517 243.822 241.393 248.012 232.638C252.255 223.829 258.297 217.035 266.139 212.254C274.035 207.474 283.004 205.084 293.048 205.084C302.985 205.084 311.847 207.447 319.635 212.174C327.423 216.9 333.466 223.641 337.763 232.396C342.113 241.097 344.315 251.087 344.369 262.367V267.765ZM315.607 262.85C315.607 251.195 313.646 242.359 309.726 236.344C305.858 230.274 300.299 227.24 293.048 227.24C278.869 227.24 271.376 237.875 270.57 259.144L270.49 267.765C270.49 279.259 272.396 288.094 276.21 294.271C280.023 300.448 285.69 303.536 293.209 303.536C300.353 303.536 305.858 300.501 309.726 294.432C313.593 288.363 315.553 279.635 315.607 268.248V262.85ZM402.538 282.589H387.23V324H358.952V206.695H405.116C419.027 206.695 429.904 209.784 437.746 215.96C445.587 222.137 449.508 230.865 449.508 242.145C449.508 250.309 447.843 257.076 444.513 262.447C441.237 267.818 436.081 272.169 429.044 275.499L453.537 322.792V324H423.244L402.538 282.589ZM387.23 260.755H405.116C410.487 260.755 414.516 259.359 417.201 256.566C419.94 253.719 421.31 249.771 421.31 244.723C421.31 239.674 419.94 235.726 417.201 232.879C414.462 229.979 410.434 228.529 405.116 228.529H387.23V260.755ZM558.595 206.695V283.475C558.595 292.176 556.742 299.723 553.036 306.114C549.33 312.452 544.013 317.286 537.084 320.616C530.155 323.946 521.964 325.611 512.511 325.611C498.224 325.611 486.972 321.905 478.754 314.493C470.536 307.081 466.347 296.93 466.186 284.039V206.695H494.625V284.603C494.948 297.44 500.91 303.858 512.511 303.858C518.366 303.858 522.797 302.247 525.805 299.024C528.812 295.802 530.316 290.565 530.316 283.314V206.695H558.595ZM613.461 206.695L639.645 288.309L665.749 206.695H702.97V324H674.611V296.607L677.35 240.533L648.991 324H630.299L601.859 240.453L604.599 296.607V324H576.32V206.695H613.461Z" fill="#F2F3F7"/>
</g>
<defs>
<filter id="filter0_dd" x="0.837891" y="0.0839844" width="812.101" height="337.527" filterUnits="userSpaceOnUse" color-interpolation-filters="sRGB">
<feFlood flood-opacity="0" result="BackgroundImageFix"/>
<feColorMatrix in="SourceAlpha" type="matrix" values="0 0 0 0 0 0 0 0 0 0 0 0 0 0 0 0 0 0 127 0"/>
<feOffset dx="-6" dy="-6"/>
<feGaussianBlur stdDeviation="3"/>
<feColorMatrix type="matrix" values="0 0 0 0 1 0 0 0 0 1 0 0 0 0 1 0 0 0 1 0"/>
<feBlend mode="normal" in2="BackgroundImageFix" result="effect1_dropShadow"/>
<feColorMatrix in="SourceAlpha" type="matrix" values="0 0 0 0 0 0 0 0 0 0 0 0 0 0 0 0 0 0 127 0"/>
<feOffset dx="6" dy="6"/>
<feGaussianBlur stdDeviation="3"/>
<feColorMatrix type="matrix" values="0 0 0 0 0.745098 0 0 0 0 0.803922 0 0 0 0 0.886275 0 0 0 1 0"/>
<feBlend mode="normal" in2="effect1_dropShadow" result="effect2_dropShadow"/>
<feBlend mode="normal" in="SourceGraphic" in2="effect2_dropShadow" result="shape"/>
</filter>
</defs>
</svg>
