<svg width="700" height="800" viewBox="0 0 700 800" fill="none" xmlns="http://www.w3.org/2000/svg">
<g filter="url(#filter0_d)">
<path d="M362.2 1.6L684 0C684 0 700 5 700 20C700 35 700 780 700 780C700 780 700 800 680 800C660 800 20 800 20 800C20 800 0 799 0 780V120C0 120 3 100 20 100H330C330 100 350 94 350 80C350 66 350 20 350 20C350 20 346.5 7.2 362.2 1.6Z" fill="#F2F3F7"/>
</g>
<defs>
<filter id="filter0_d" x="-10" y="-22" width="732" height="832" filterUnits="userSpaceOnUse" color-interpolation-filters="sRGB">
<feFlood flood-opacity="0" result="BackgroundImageFix"/>
<feColorMatrix in="SourceAlpha" type="matrix" values="0 0 0 0 0 0 0 0 0 0 0 0 0 0 0 0 0 0 127 0"/>
<feOffset dx="6" dy="-6"/>
<feGaussianBlur stdDeviation="8"/>
<feColorMatrix type="matrix" values="0 0 0 0 0.745098 0 0 0 0 0.803922 0 0 0 0 0.886275 0 0 0 1 0"/>
<feBlend mode="normal" in2="BackgroundImageFix" result="effect1_dropShadow"/>
<feBlend mode="normal" in="SourceGraphic" in2="effect1_dropShadow" result="shape"/>
</filter>
</defs>
</svg>
