<svg width="700" height="800" viewBox="0 0 700 800" fill="none" xmlns="http://www.w3.org/2000/svg">
<g filter="url(#filter0_d)">
<path d="M337.8 1.6L16 0C16 0 0 5 0 20C0 35 0 780 0 780C0 780 0 800 20 800C40 800 680 800 680 800C680 800 700 799 700 780V120C700 120 697 100 680 100H370C370 100 350 94 350 80C350 66 350 20 350 20C350 20 353.5 7.2 337.8 1.6Z" fill="#F2F3F7"/>
</g>
<defs>
<filter id="filter0_d" x="-10" y="-22" width="732" height="832" filterUnits="userSpaceOnUse" color-interpolation-filters="sRGB">
<feFlood flood-opacity="0" result="BackgroundImageFix"/>
<feColorMatrix in="SourceAlpha" type="matrix" values="0 0 0 0 0 0 0 0 0 0 0 0 0 0 0 0 0 0 127 0"/>
<feOffset dx="6" dy="-6"/>
<feGaussianBlur stdDeviation="8"/>
<feColorMatrix type="matrix" values="0 0 0 0 0.745098 0 0 0 0 0.803922 0 0 0 0 0.886275 0 0 0 1 0"/>
<feBlend mode="normal" in2="BackgroundImageFix" result="effect1_dropShadow"/>
<feBlend mode="normal" in="SourceGraphic" in2="effect1_dropShadow" result="shape"/>
</filter>
</defs>
</svg>
